<?xml version="1.0" standalone="no"?>
<!DOCTYPE svg PUBLIC "-//W3C//DTD SVG 1.1//EN" "http://www.w3.org/Graphics/SVG/1.1/DTD/svg11.dtd" >
<svg>
<metadata>
Created by FontForge 20120731 at Fri Jul  5 06:13:56 2019
 By www
Copyright (c) 1992 Adobe Systems Incorporated. All Rights Reserved.Grotesque is a trademark of The Monotype Corporation plc registered in the U.S. Patent &#38; TM Office.
</metadata>
<defs>
<font id="GrotesqueMT-ExtraCondensed" horiz-adv-x="313" >
  <font-face 
    font-family="Grotesque MT"
    font-weight="500"
    font-stretch="condensed"
    units-per-em="1000"
    panose-1="0 0 0 0 0 0 0 0 0 0"
    ascent="800"
    descent="-200"
    x-height="518"
    cap-height="732"
    bbox="-154 -250 1008 952"
    underline-thickness="50"
    underline-position="-75"
    stemh="56"
    stemv="75"
    unicode-range="U+0020-FB02"
  />
<missing-glyph horiz-adv-x="175" 
 />
    <glyph glyph-name=".notdef" horiz-adv-x="175" 
 />
    <glyph glyph-name="space" unicode=" " horiz-adv-x="175" 
 />
    <glyph glyph-name="exclam" unicode="!" horiz-adv-x="167" 
d="M43 548v184h81v-181l-21 -367h-38zM44 0v111h81v-111h-81z" />
    <glyph glyph-name="quotedbl" unicode="&#x22;" horiz-adv-x="302" 
d="M49 617v115h73v-116l-15 -132h-43zM180 616v116h73v-116l-15 -132h-43z" />
    <glyph glyph-name="numbersign" unicode="#" horiz-adv-x="668" 
d="M44 437v60h159l42 198h59l-42 -198h206l41 198h60l-42 -198h97v-60h-109l-37 -181h146v-60h-158l-41 -196h-60l42 196h-207l-41 -196h-60l41 196h-96v60h109l38 181h-147zM456 437h-206l-38 -180h207z" />
    <glyph glyph-name="dollar" unicode="$" 
d="M136 447v187c-27 -15 -40 -38 -40 -76c0 -39 16 -83 40 -111zM180 272v-202c28 12 41 37 41 77c0 45 -15 90 -41 125zM136 707v34h44v-35c27 -9 38 -15 53 -27c46 -40 56 -97 56 -147v-51h-74v41c0 68 -8 93 -35 107v-232c58 -59 112 -117 112 -236
c0 -100 -34 -148 -112 -165v-78h-44v78c-39 7 -113 23 -113 168v58h75v-45c0 -60 10 -88 38 -105v253c-70 73 -114 119 -114 217c0 91 32 147 114 165z" />
    <glyph glyph-name="percent" unicode="%" horiz-adv-x="594" 
d="M421 224v-118c0 -59 15 -83 44 -83c28 0 39 27 39 83v118c0 56 -12 78 -42 78c-28 0 -41 -22 -41 -78zM355 97v133c0 77 39 121 108 121c67 0 107 -45 107 -121v-133c0 -79 -36 -125 -105 -125c-71 0 -110 46 -110 125zM91 613v-118c0 -59 15 -83 44 -83
c28 0 39 27 39 83v118c0 56 -12 78 -42 78c-28 0 -41 -22 -41 -78zM25 486v133c0 77 39 121 108 121c67 0 107 -45 107 -121v-133c0 -79 -36 -125 -105 -125c-71 0 -110 46 -110 125zM95 -27l371 769h35l-371 -769h-35z" />
    <glyph glyph-name="ampersand" unicode="&#x26;" horiz-adv-x="448" 
d="M222 491c39 20 56 54 56 111c0 49 -11 71 -36 71c-22 0 -33 -22 -33 -63c0 -37 5 -79 13 -119zM171 375c-45 -31 -60 -60 -60 -113c0 -87 48 -190 88 -190c18 0 41 22 54 50c-20 50 -45 113 -82 253zM411 64l-10 -64c-12 -3 -19 -4 -26 -4c-37 0 -67 20 -89 60
c-29 -39 -62 -60 -97 -60c-81 0 -151 116 -151 252c0 113 79 168 116 193c-3 14 -3 18 -7 38c-10 49 -12 69 -12 99c0 98 43 160 111 160c65 0 100 -49 100 -140c0 -107 -67 -150 -107 -175c20 -75 27 -97 62 -212c34 78 47 159 53 204h59c-19 -138 -35 -194 -78 -283
c26 -71 55 -70 76 -68z" />
    <glyph glyph-name="quoteright" unicode="&#x2019;" horiz-adv-x="167" 
d="M43 621v111h81v-124l-74 -93l-20 24l60 82h-47z" />
    <glyph glyph-name="parenleft" unicode="(" horiz-adv-x="240" 
d="M222 -146l-31 -33c-116 136 -162 280 -162 459s46 323 162 459l31 -33c-88 -113 -109 -255 -109 -426s21 -313 109 -426z" />
    <glyph glyph-name="parenright" unicode=")" horiz-adv-x="240" 
d="M18 706l31 33c116 -136 162 -280 162 -459s-46 -323 -162 -459l-31 33c88 113 109 255 109 426s-21 313 -109 426z" />
    <glyph glyph-name="asterisk" unicode="*" horiz-adv-x="344" 
d="M18 594l19 63l56 -20c23 -18 44 -33 71 -47c-5 38 -10 54 -23 82v60h65v-59c-13 -31 -18 -51 -25 -83c25 12 44 25 70 47l56 19l19 -62l-53 -17c-33 1 -55 1 -88 -3c24 -23 38 -32 69 -54l34 -45l-52 -37l-35 47c-7 33 -12 49 -29 80c-14 -31 -19 -47 -26 -80l-34 -49
l-53 39l34 46c27 17 43 30 67 55c-30 3 -57 3 -88 1z" />
    <glyph glyph-name="plus" unicode="+" horiz-adv-x="667" 
d="M68 291v64h233v234h64v-234h234v-64h-234v-232h-64v232h-233z" />
    <glyph glyph-name="comma" unicode="," horiz-adv-x="167" 
d="M44 0v113h81v-129l-79 -122l-27 23l75 115h-50z" />
    <glyph glyph-name="hyphen" unicode="-" horiz-adv-x="240" 
d="M23 219v79h195v-79h-195z" />
    <glyph glyph-name="period" unicode="." horiz-adv-x="167" 
d="M43 0v113h82v-113h-82z" />
    <glyph glyph-name="slash" unicode="/" horiz-adv-x="281" 
d="M6 -171l171 902h67l-170 -902h-68z" />
    <glyph glyph-name="zero" unicode="0" 
d="M114 593v-449c0 -52 15 -75 46 -75c30 0 40 26 40 76v452c0 46 -15 69 -43 69c-29 0 -43 -25 -43 -73zM31 164v405c0 112 43 171 127 171c83 0 125 -61 125 -165v-410c0 -109 -41 -171 -122 -171c-86 0 -130 60 -130 170z" />
    <glyph glyph-name="one" unicode="1" 
d="M66 611v59c49 2 80 27 86 68h57v-738h-84v611h-59z" />
    <glyph glyph-name="two" unicode="2" 
d="M114 467h-76v126c0 96 39 146 114 146c87 0 127 -54 127 -171c0 -131 -24 -167 -77 -248c-72 -109 -89 -153 -90 -221v-23h91v123h73v-199h-240v65c0 129 44 201 66 237c75 121 93 150 93 261c0 63 -2 105 -43 105c-26 0 -38 -23 -38 -70v-131z" />
    <glyph glyph-name="three" unicode="3" 
d="M113 506h-78v68c0 111 40 167 118 167c126 0 128 -121 128 -181c0 -123 -9 -147 -67 -173c56 -22 72 -51 72 -133v-88c0 -121 -43 -172 -131 -172c-87 0 -127 47 -127 166v104h79v-91c0 -82 14 -106 51 -106c34 0 46 30 46 93v94c0 73 -19 96 -79 96h-28v76h21
c60 0 80 16 80 66v108c0 46 -14 67 -44 67c-28 0 -41 -25 -41 -77v-84z" />
    <glyph glyph-name="four" unicode="4" 
d="M168 221v365l-101 -365h101zM21 268l142 463h84v-510h54v-66h-54v-155h-80v155h-146v113z" />
    <glyph glyph-name="five" unicode="5" 
d="M37 238h77v-101c0 -46 14 -68 44 -68c29 0 40 24 40 88v203c0 51 -13 73 -43 73c-40 0 -40 -46 -41 -105v-24h-74v428h219v-78h-143v-170c19 19 40 28 65 28c60 0 99 -50 99 -127v-230c0 -110 -37 -159 -121 -159c-79 0 -122 49 -122 140v102z" />
    <glyph glyph-name="six" unicode="6" 
d="M197 132v159c0 35 -14 55 -38 55s-38 -25 -38 -59v-158c0 -42 13 -63 39 -63c23 0 37 22 37 66zM270 496h-78v113c0 36 -14 57 -38 57c-22 0 -34 -19 -34 -58v-211c18 20 42 32 65 32c85 0 95 -104 95 -164v-112c0 -100 -45 -160 -119 -160c-79 0 -124 59 -124 162v399
c0 131 36 186 114 186s119 -51 119 -146v-98z" />
    <glyph glyph-name="seven" unicode="7" 
d="M36 515v217h248v-60c0 -99 -14 -182 -49 -304c-12 -39 -12 -42 -16 -56c-15 -57 -30 -158 -30 -250v-62h-84v54c0 107 21 219 66 356l6 18c30 92 37 134 40 220h-113v-133h-68z" />
    <glyph glyph-name="eight" unicode="8" 
d="M117 580v-50c0 -66 5 -93 38 -93c35 0 38 26 38 95v46c0 65 -9 88 -39 88c-28 0 -37 -20 -37 -86zM116 262v-124c0 -47 15 -72 42 -72s39 25 39 72v123c0 57 -11 82 -41 82c-29 0 -40 -26 -40 -81zM107 390c-55 28 -67 56 -67 169c0 72 1 180 110 180
c117 0 121 -99 121 -179c0 -108 -7 -138 -64 -168c59 -27 74 -54 74 -189c0 -95 -1 -209 -123 -209c-125 0 -126 117 -126 206c0 138 16 166 75 190z" />
    <glyph glyph-name="nine" unicode="9" 
d="M116 602v-159c0 -35 14 -55 38 -55s38 25 38 59v158c0 42 -13 63 -39 63c-23 0 -37 -22 -37 -66zM43 238h78v-113c0 -36 14 -57 38 -57c22 0 34 19 34 58v211c-18 -20 -42 -32 -65 -32c-85 0 -95 104 -95 164v112c0 100 45 160 119 160c79 0 124 -59 124 -162v-399
c0 -131 -36 -186 -114 -186s-119 51 -119 146v98z" />
    <glyph glyph-name="colon" unicode=":" horiz-adv-x="167" 
d="M43 408v110h81v-110h-81zM43 0v113h81v-113h-81z" />
    <glyph glyph-name="semicolon" unicode=";" horiz-adv-x="167" 
d="M43 407v111h81v-111h-81zM44 0v113h80v-130l-80 -121l-25 23l74 115h-49z" />
    <glyph glyph-name="less" unicode="&#x3c;" horiz-adv-x="667" 
d="M598 141v-69l-529 223v58l529 223v-70l-443 -182z" />
    <glyph glyph-name="equal" unicode="=" horiz-adv-x="667" 
d="M69 407v64h530v-64h-530zM69 179v64h530v-64h-530z" />
    <glyph glyph-name="greater" unicode="&#x3e;" horiz-adv-x="667" 
d="M69 506v70l529 -224v-57l-529 -223v69l443 182z" />
    <glyph glyph-name="question" unicode="?" horiz-adv-x="281" 
d="M92 501h-73v52c0 132 34 185 118 185c121 0 124 -120 124 -186c0 -68 -8 -95 -46 -154l-16 -26c-22 -35 -34 -86 -34 -142v-46h-66v67c0 54 15 111 42 158c19 33 40 69 40 165c0 73 -12 101 -45 101c-44 0 -44 -54 -44 -104v-70zM92 0v111h81v-111h-81z" />
    <glyph glyph-name="at" unicode="@" horiz-adv-x="800" 
d="M541 414l17 81h61l-83 -392l-4 -22c-1 -8 -2 -14 -2 -17c0 -12 9 -20 24 -20c91 0 191 144 191 275c0 108 -41 203 -111 258c-54 42 -129 64 -220 64c-218 0 -375 -164 -375 -391c0 -226 155 -380 381 -380c93 0 174 21 238 63c38 26 56 42 94 90h50
c-40 -61 -61 -82 -111 -116c-75 -51 -167 -76 -278 -76c-245 0 -414 173 -414 423c0 184 110 427 429 427c216 0 358 -144 358 -363c0 -162 -125 -318 -254 -318c-38 0 -57 18 -57 54c0 8 1 20 4 36c-57 -67 -114 -90 -171 -90c-95 0 -165 90 -165 210
c0 157 117 297 247 297c65 0 114 -27 151 -93zM518 325c0 81 -52 140 -123 140c-137 0 -190 -178 -190 -259c0 -93 52 -160 123 -160c94 0 190 141 190 279z" />
    <glyph glyph-name="A" unicode="A" horiz-adv-x="344" 
d="M213 270l-41 391l-42 -391h83zM21 0l95 732h111l96 -732h-78l-23 197h-100l-23 -197h-78z" />
    <glyph glyph-name="B" unicode="B" horiz-adv-x="344" 
d="M133 654v-242l36 -1c34 0 49 23 49 76v77c0 71 -11 90 -54 90h-31zM133 334v-256h45c38 0 49 20 49 87v60c0 88 -12 109 -61 109h-33zM49 0v732h108c108 0 145 -48 145 -191c0 -119 -20 -143 -61 -166c53 -28 73 -58 73 -176c0 -97 -3 -199 -126 -199h-139z" />
    <glyph glyph-name="C" unicode="C" horiz-adv-x="344" 
d="M224 306h83v-153c0 -95 -50 -160 -132 -160c-84 0 -134 62 -134 159v412c0 115 44 177 126 177c91 0 135 -59 135 -182v-99h-83v96c0 56 -2 107 -46 107c-48 0 -48 -59 -48 -128v-390c0 -46 19 -73 51 -73s48 27 48 73v161z" />
    <glyph glyph-name="D" unicode="D" horiz-adv-x="344" 
d="M124 655v-577h39c45 0 58 18 58 91v388c0 76 -13 98 -59 98h-38zM41 0v732h124c102 0 141 -54 141 -191v-356c0 -134 -39 -185 -138 -185h-127z" />
    <glyph glyph-name="E" unicode="E" 
d="M48 0v732h236v-78h-152v-240h131v-76h-131v-260h163v-78h-247z" />
    <glyph glyph-name="F" unicode="F" 
d="M57 0v732h242v-77h-159v-240h125v-77h-125v-338h-83z" />
    <glyph glyph-name="G" unicode="G" horiz-adv-x="344" 
d="M162 373h145v-226c0 -93 -48 -153 -131 -153c-86 0 -137 58 -137 156v434c0 97 49 157 132 157c84 0 133 -57 133 -162v-142h-83v143c0 58 -15 83 -48 83s-50 -28 -50 -81v-420c0 -61 17 -89 53 -89c37 0 48 28 48 91v131h-62v78z" />
    <glyph glyph-name="H" unicode="H" horiz-adv-x="344" 
d="M45 0v732h83v-318h89v318h83v-732h-83v337h-89v-337h-83z" />
    <glyph glyph-name="I" unicode="I" horiz-adv-x="167" 
d="M42 0v732h84v-732h-84z" />
    <glyph glyph-name="J" unicode="J" 
d="M28 308h83v-179c0 -41 11 -57 37 -57c24 0 37 16 37 54v606h83v-609c0 -80 -46 -129 -123 -129c-72 0 -117 53 -117 139v175z" />
    <glyph glyph-name="K" unicode="K" horiz-adv-x="344" 
d="M53 0v732h84v-299l102 299h82l-114 -327l123 -405h-84l-109 363v-363h-84z" />
    <glyph glyph-name="L" unicode="L" 
d="M56 0v732h83v-654h152v-78h-235z" />
    <glyph glyph-name="M" unicode="M" horiz-adv-x="417" 
d="M42 1v731h105l60 -406h5l60 406h103v-732h-76v196c0 41 13 332 17 422h-5l-95 -617h-13l-94 618h-4l2 -59c7 -147 11 -275 11 -315v-244h-76z" />
    <glyph glyph-name="N" unicode="N" horiz-adv-x="344" 
d="M45 0v732h71l108 -453h4v453h71v-732h-69l-110 454h-3v-454h-72z" />
    <glyph glyph-name="O" unicode="O" horiz-adv-x="344" 
d="M223 157v417c0 66 -14 89 -51 89c-36 0 -50 -25 -50 -91v-404c0 -70 14 -96 52 -96c34 0 49 26 49 85zM307 571v-404c0 -112 -49 -173 -133 -173c-88 0 -136 64 -136 173v403c0 105 46 171 135 171s134 -64 134 -170z" />
    <glyph glyph-name="P" unicode="P" horiz-adv-x="344" 
d="M169 653h-34v-246h29c51 0 65 21 65 95v67c0 61 -17 84 -60 84zM52 0v732h105c134 0 159 -65 159 -206c0 -109 -13 -196 -136 -196h-45v-330h-83z" />
    <glyph glyph-name="Q" unicode="Q" horiz-adv-x="344" 
d="M223 156v425c0 59 -14 82 -51 82c-36 0 -50 -25 -50 -91v-404c0 -70 14 -96 52 -96c34 0 49 26 49 84zM38 175v387c0 117 46 179 135 179s134 -60 134 -178v-401c0 -76 -25 -150 -110 -168l67 -164h-96l-25 166c-50 16 -105 41 -105 179z" />
    <glyph glyph-name="R" unicode="R" horiz-adv-x="344" 
d="M129 653v-254h22c60 0 73 20 73 110c0 127 -9 144 -67 144h-28zM45 0v732h130c90 0 135 -57 135 -171v-74c0 -76 -17 -114 -63 -143l85 -344h-82l-80 322h-41v-322h-84z" />
    <glyph glyph-name="S" unicode="S" horiz-adv-x="344" 
d="M38 265h79v-84c0 -75 19 -111 62 -111c36 0 53 35 53 100c0 80 -24 108 -76 162c-79 84 -118 125 -118 238c0 109 47 170 133 170c83 0 128 -61 128 -171v-85h-77v56c0 92 -13 122 -51 122c-36 0 -51 -25 -51 -82c0 -75 11 -98 88 -177l21 -22c66 -70 85 -115 85 -205
c0 -84 -30 -183 -133 -183c-95 0 -143 62 -143 188v84z" />
    <glyph glyph-name="T" unicode="T" horiz-adv-x="344" 
d="M15 656v76h314v-76h-116v-656h-83v656h-115z" />
    <glyph glyph-name="U" unicode="U" horiz-adv-x="344" 
d="M300 732v-581c0 -61 -9 -94 -34 -120c-25 -24 -58 -38 -93 -38c-33 0 -70 14 -92 36c-26 26 -37 61 -37 126v577h83v-583c0 -54 13 -76 47 -76c28 0 43 20 43 75v584h83z" />
    <glyph glyph-name="V" unicode="V" horiz-adv-x="344" 
d="M122 0l-101 732h77l74 -564l73 564h78l-104 -732h-97z" />
    <glyph glyph-name="W" unicode="W" horiz-adv-x="510" 
d="M93 0l-75 732h79l45 -570l65 570h98l65 -571l45 571h78l-74 -732h-97l-67 562l-64 -562h-98z" />
    <glyph glyph-name="X" unicode="X" horiz-adv-x="344" 
d="M131 390l-100 342h84l58 -219l56 219h84l-98 -344l112 -388h-83l-71 265l-71 -265h-84z" />
    <glyph glyph-name="Y" unicode="Y" horiz-adv-x="344" 
d="M133 309l-114 423h84l71 -303l68 303h83l-109 -421v-311h-83v309z" />
    <glyph glyph-name="Z" unicode="Z" horiz-adv-x="281" 
d="M38 656v76h215v-74l-144 -579h151v-79h-236v73l145 583h-131z" />
    <glyph glyph-name="bracketleft" unicode="[" horiz-adv-x="281" 
d="M148 665v-770h113v-67h-188v904h188v-67h-113z" />
    <glyph glyph-name="backslash" unicode="\" horiz-adv-x="281" 
d="M208 -170l-169 902h67l170 -902h-68z" />
    <glyph glyph-name="bracketright" unicode="]" horiz-adv-x="281" 
d="M20 665v67h188v-904h-188v67h113v770h-113z" />
    <glyph glyph-name="asciicircum" unicode="^" horiz-adv-x="660" 
d="M112 478l218 262l219 -262l-32 -26l-187 225l-188 -225z" />
    <glyph glyph-name="underscore" unicode="_" horiz-adv-x="500" 
d="M-10 -125v50h520v-50h-520z" />
    <glyph glyph-name="quoteleft" unicode="&#x2018;" horiz-adv-x="167" 
d="M43 643l75 93l21 -22l-61 -82h47v-112h-82v123z" />
    <glyph glyph-name="a" unicode="a" 
d="M187 149v123c-9 -4 -13 -6 -22 -10c-37 -16 -59 -25 -59 -124c0 -58 6 -73 30 -73c29 0 51 36 51 84zM296 61v-60c-9 -3 -22 -5 -38 -5c-47 0 -66 19 -71 70c-28 -54 -49 -70 -88 -70c-52 0 -71 36 -71 140c0 114 24 155 112 183c26 9 33 12 47 20v74c0 28 -12 43 -35 43
c-21 0 -35 -19 -35 -49v-42h-66v25c0 94 32 133 108 133c63 0 103 -41 103 -106v-322c0 -26 8 -34 34 -34z" />
    <glyph glyph-name="b" unicode="b" 
d="M44 0v732h76v-270c26 46 46 62 80 62c27 0 72 -6 72 -127v-245c0 -107 -27 -156 -83 -156c-40 0 -66 25 -86 81l-24 -77h-35zM119 348v-216c0 -46 17 -74 45 -74c23 0 35 14 33 85v271c0 31 -10 46 -31 46c-31 0 -47 -39 -47 -112z" />
    <glyph glyph-name="c" unicode="c" horiz-adv-x="281" 
d="M183 225h73v-84c0 -97 -42 -145 -111 -145c-74 0 -114 41 -114 144v242c0 91 39 142 113 142c65 0 109 -48 109 -127v-95h-72v95c0 41 -11 60 -37 60s-38 -22 -38 -70v-251c0 -53 12 -72 39 -72c24 0 38 21 38 69v92z" />
    <glyph glyph-name="d" unicode="d" 
d="M196 165v193c0 65 -18 103 -48 103c-18 0 -29 -23 -29 -60v-292c0 -31 9 -47 27 -47c30 0 50 42 50 103zM195 462v270h75v-732h-75v68c-24 -49 -52 -72 -85 -72c-45 0 -69 35 -69 101v311c0 76 25 116 72 116c32 0 57 -19 82 -62z" />
    <glyph glyph-name="e" unicode="e" 
d="M121 311h81v66c0 54 -12 79 -43 79c-28 0 -38 -26 -38 -68v-77zM200 198h73v-42c0 -108 -39 -161 -111 -161c-99 0 -118 75 -118 207v145c0 116 39 177 113 177c79 0 119 -63 119 -185v-92h-156v-79c0 -73 7 -104 41 -104c30 0 39 27 39 78v56z" />
    <glyph glyph-name="f" unicode="f" horiz-adv-x="208" 
d="M27 518h43v91c0 84 37 129 106 129h59v-64h-30c-44 0 -60 -15 -60 -56v-100h48v-56h-48v-462h-75v462h-43v56z" />
    <glyph glyph-name="g" unicode="g" 
d="M195 160v215c0 52 -16 82 -45 82c-22 0 -32 -21 -32 -70v-257c0 -50 7 -68 28 -68c30 0 49 39 49 98zM41 93v304c0 80 27 125 75 125c32 0 55 -18 80 -63v59h74v-530c0 -123 -32 -168 -117 -168c-73 0 -109 39 -109 114v19h67c0 -39 1 -76 42 -76c27 0 42 21 42 66v123
c-26 -48 -51 -68 -87 -68c-43 0 -67 34 -67 95z" />
    <glyph glyph-name="h" unicode="h" 
d="M41 0v732h75v-281c24 50 53 74 90 74c44 0 70 -34 70 -92v-433h-75v413c0 36 -7 48 -28 48c-36 0 -57 -54 -57 -144v-317h-75z" />
    <glyph glyph-name="i" unicode="i" horiz-adv-x="167" 
d="M46 639v93h75v-93h-75zM46 0v518h75v-518h-75z" />
    <glyph glyph-name="j" unicode="j" horiz-adv-x="167" 
d="M44 637v95h75v-95h-75zM120 518v-595c0 -97 -55 -104 -114 -104h-26v68h16c34 0 49 16 49 51v580h75z" />
    <glyph glyph-name="k" unicode="k" 
d="M55 0v732h75v-450l82 236h71l-90 -234l110 -284h-74l-99 278v-278h-75z" />
    <glyph glyph-name="l" unicode="l" horiz-adv-x="167" 
d="M47 0v732h74v-732h-74z" />
    <glyph glyph-name="m" unicode="m" horiz-adv-x="479" 
d="M122 518v-63c24 45 53 67 87 67c36 0 55 -19 68 -65c24 43 52 65 88 65c47 0 71 -36 71 -107v-415h-75v404c0 41 -9 61 -30 61c-32 0 -52 -41 -52 -135v-330h-75v419c0 30 -11 46 -31 46c-32 0 -51 -49 -51 -128v-337h-75v518h75z" />
    <glyph glyph-name="n" unicode="n" 
d="M40 0v518h75v-78c23 56 51 82 91 82c43 0 70 -35 70 -91v-431h-75v411c0 31 -11 48 -30 48c-33 0 -56 -55 -56 -134v-325h-75z" />
    <glyph glyph-name="o" unicode="o" 
d="M114 388v-255c0 -48 14 -71 42 -71s43 24 43 71v255c0 43 -16 69 -43 69c-26 0 -42 -27 -42 -69zM38 157v208c0 100 42 158 118 158c77 0 119 -55 119 -161v-205c0 -105 -41 -161 -116 -161c-79 0 -121 57 -121 161z" />
    <glyph glyph-name="p" unicode="p" 
d="M46 -180v698h73v-65c25 50 47 69 82 69c47 0 74 -49 74 -133v-271c0 -80 -25 -122 -71 -122c-33 0 -54 15 -82 58v-234h-76zM121 349v-174c0 -79 17 -115 47 -115c20 0 31 13 31 51v279c0 48 -9 67 -32 67c-31 0 -46 -35 -46 -108z" />
    <glyph glyph-name="q" unicode="q" 
d="M232 518h37v-698h-77v233c-27 -42 -48 -57 -79 -57c-47 0 -71 37 -71 113v300c0 67 35 115 83 115c37 0 65 -27 84 -81zM193 148v241c0 42 -17 69 -43 69c-20 0 -32 -16 -32 -44v-317c0 -23 11 -37 29 -37c27 0 46 37 46 88z" />
    <glyph glyph-name="r" unicode="r" horiz-adv-x="281" 
d="M51 0v518h73v-64c25 49 48 68 81 68c28 0 49 -31 49 -73v-146h-66v101c0 36 -6 49 -23 49c-24 0 -38 -33 -38 -91v-362h-76z" />
    <glyph glyph-name="s" unicode="s" horiz-adv-x="281" 
d="M24 193h67v-47c0 -57 16 -86 52 -86c28 0 46 22 46 60c0 46 -18 77 -75 128c-38 34 -82 76 -82 150c0 84 37 126 108 126c64 0 103 -45 103 -121v-48h-61v52c0 36 -17 59 -42 59c-27 0 -41 -18 -41 -54c0 -39 17 -67 69 -113c76 -67 90 -114 90 -167
c0 -83 -45 -136 -117 -136s-117 54 -117 142v55z" />
    <glyph glyph-name="t" unicode="t" horiz-adv-x="208" 
d="M191 462h-53v-355c0 -45 10 -49 53 -49v-60c-9 -1 -20 -2 -34 -2c-53 0 -94 19 -94 88v378h-48v56h49v112h75v-112h52v-56z" />
    <glyph glyph-name="u" unicode="u" 
d="M38 88v430h75v-409c0 -38 10 -55 33 -55c28 0 52 45 52 99v365h75v-518h-75v66c-27 -48 -55 -70 -88 -70c-43 0 -72 37 -72 92z" />
    <glyph glyph-name="v" unicode="v" horiz-adv-x="281" 
d="M105 0l-85 518h75l46 -396l45 396h76l-86 -518h-71z" />
    <glyph glyph-name="w" unicode="w" horiz-adv-x="417" 
d="M95 0l-79 518h71l42 -368l51 368h59l56 -365l38 365h69l-70 -518h-69l-51 357l-50 -357h-67z" />
    <glyph glyph-name="x" unicode="x" horiz-adv-x="281" 
d="M104 264l-85 254h70l50 -175l48 175h71l-83 -249l92 -269h-71l-55 185l-53 -185h-71z" />
    <glyph glyph-name="y" unicode="y" horiz-adv-x="281" 
d="M120 0l-103 518h72l59 -376l38 376h72l-78 -548c-13 -94 -25 -150 -124 -150h-33v63c43 -2 74 1 84 52z" />
    <glyph glyph-name="z" unicode="z" horiz-adv-x="240" 
d="M91 66h134v-66h-210v69l132 383h-123v66h200v-62z" />
    <glyph glyph-name="braceleft" unicode="{" horiz-adv-x="334" 
d="M41 242v76c93 3 94 89 94 183c1 101 1 149 32 191c29 43 78 43 112 43h25v-75h-14c-65 0 -78 -16 -78 -98v-68c0 -152 -36 -184 -95 -214c59 -30 95 -62 95 -214v-68c0 -82 13 -98 78 -98h14v-75h-25c-34 0 -83 0 -112 43c-31 42 -31 90 -32 191c0 94 -1 180 -94 183z
" />
    <glyph glyph-name="bar" unicode="|" horiz-adv-x="527" 
d="M231 -250v1000h64v-1000h-64z" />
    <glyph glyph-name="braceright" unicode="}" horiz-adv-x="334" 
d="M293 318v-76c-93 -3 -94 -89 -94 -183c-1 -101 -1 -149 -32 -191c-29 -43 -78 -43 -112 -43h-25v75h14c65 0 78 16 78 98v68c0 152 36 184 95 214c-59 30 -95 62 -95 214v68c0 82 -13 98 -78 98h-14v75h25c34 0 83 0 112 -43c31 -42 31 -90 32 -191c0 -94 1 -180 94 -183
z" />
    <glyph glyph-name="asciitilde" unicode="~" horiz-adv-x="656" 
d="M592 413v-71c-49 -41 -97 -62 -139 -62c-41 0 -65 8 -155 51c-42 20 -69 28 -91 28c-43 0 -88 -21 -143 -67v70c47 38 101 61 143 61c37 0 68 -10 144 -47c47 -23 76 -32 100 -32c62 0 112 43 141 69z" />
    <glyph glyph-name="exclamdown" unicode="&#xa1;" horiz-adv-x="167" 
d="M44 446v109h77v-109h-77zM46 -172v186l19 358h36l22 -358v-186h-77z" />
    <glyph glyph-name="cent" unicode="&#xa2;" horiz-adv-x="271" 
d="M113 639v93h51v-96c56 -18 81 -58 81 -127v-88h-71v94c0 38 -14 60 -39 60c-24 0 -37 -20 -37 -58v-263c0 -50 13 -74 40 -74c23 0 39 24 39 57v105h73v-87c0 -78 -32 -129 -85 -138v-117h-52v117c-32 7 -55 20 -70 41c-14 21 -21 50 -21 88v274c0 68 30 106 91 119z" />
    <glyph glyph-name="sterling" unicode="&#xa3;" 
d="M17 390h55c-6 51 -11 118 -11 168c0 115 41 181 114 181c65 0 108 -60 108 -149v-30h-72v27c0 56 -13 82 -40 82c-23 0 -35 -27 -35 -76c0 -29 12 -171 14 -203h85v-63h-82c3 -116 -5 -168 -17 -218c8 -5 11 -6 21 -14c20 -15 30 -20 40 -20c23 0 31 19 31 70v42h64v-30
c0 -105 -31 -164 -86 -164c-29 0 -59 16 -91 47c-9 -29 -27 -46 -50 -46c-27 0 -47 20 -47 49c0 42 22 68 67 78c1 38 2 78 -7 179l-2 27h-59v63z" />
    <glyph glyph-name="fraction" unicode="&#x2044;" horiz-adv-x="94" 
d="M-154 -28l371 768h34l-370 -768h-35z" />
    <glyph glyph-name="yen" unicode="&#xa5;" horiz-adv-x="344" 
d="M174 434l68 298h83l-91 -331h92v-52h-110v-91h110v-52h-110v-206h-83v206h-113v52h113v91h-113v52h95l-96 331h84z" />
    <glyph glyph-name="florin" unicode="&#x192;" horiz-adv-x="556" 
d="M335 461l-93 -534c-16 -93 -51 -127 -130 -127c-27 0 -67 5 -106 13l17 76c35 -8 56 -11 75 -11c49 0 55 36 61 74l87 509h-98l11 68h99l11 66c12 67 27 145 143 145c33 0 54 -5 101 -19l-17 -74c-41 9 -55 11 -78 11c-47 0 -53 -35 -61 -78l-10 -51h100l-12 -68h-100z
" />
    <glyph glyph-name="section" unicode="&#xa7;" horiz-adv-x="344" 
d="M160 387l-19 25c-27 -26 -38 -48 -38 -77c0 -62 67 -144 100 -185c25 21 36 45 36 77c0 41 -19 79 -79 160zM125 13v-28c0 -74 12 -100 45 -100c27 0 42 21 42 58c0 44 -24 93 -91 181c-42 55 -84 117 -84 205c0 50 20 93 65 137c-38 64 -48 94 -48 138
c0 85 43 135 116 135c77 0 122 -56 122 -152v-42h-73v45c0 55 -16 85 -45 85s-44 -21 -44 -61c0 -45 13 -74 61 -135l17 -22c73 -93 99 -150 99 -217c0 -64 -18 -103 -69 -145c24 -37 50 -77 50 -141c0 -84 -43 -134 -115 -134c-83 0 -121 50 -121 158v35h73z" />
    <glyph glyph-name="currency" unicode="&#xa4;" horiz-adv-x="684" 
d="M148 562l62 -62c39 29 83 44 132 44c47 0 94 -15 134 -44l61 62l43 -44l-61 -62c27 -37 44 -83 44 -133c0 -48 -14 -90 -44 -132l61 -61l-43 -44l-62 62c-35 -30 -86 -45 -133 -45c-50 0 -97 16 -132 44l-62 -61l-43 44l62 61c-29 36 -45 80 -45 132c0 48 15 94 45 133
l-62 62zM184 323c0 -87 71 -158 159 -158c87 0 158 71 158 158c0 88 -71 159 -158 159c-88 0 -159 -71 -159 -159z" />
    <glyph glyph-name="quotesingle" unicode="'" horiz-adv-x="167" 
d="M47 616v116h73v-117l-13 -130h-45z" />
    <glyph glyph-name="quotedblleft" unicode="&#x201c;" horiz-adv-x="302" 
d="M43 643l76 94l19 -24l-60 -81h47v-112h-82v123zM178 643l76 94l20 -24l-61 -81h47v-112h-82v123z" />
    <glyph glyph-name="guillemotleft" unicode="&#xab;" 
d="M18 276l85 202h58l-71 -199l73 -200h-58zM151 277l85 201h58l-70 -200l72 -199h-57z" />
    <glyph glyph-name="guilsinglleft" unicode="&#x2039;" horiz-adv-x="177" 
d="M16 277l85 201h57l-70 -200l73 -199h-58z" />
    <glyph glyph-name="guilsinglright" unicode="&#x203a;" horiz-adv-x="177" 
d="M88 276l-72 202h58l87 -200l-85 -199h-58z" />
    <glyph glyph-name="fi" unicode="&#xfb01;" 
d="M17 462v56h29v91c0 53 6 123 133 123h100v-109h-76v49h-24c-40 0 -58 -16 -58 -52v-102h159v-518h-75v462h-84v-462h-75v462h-29z" />
    <glyph glyph-name="fl" unicode="&#xfb02;" 
d="M279 732v-732h-74v462h-80v-462h-75v462h-26v56h26v91c0 90 41 123 155 123h74zM205 670h-22c-41 0 -58 -16 -58 -52v-100h80v152z" />
    <glyph glyph-name="endash" unicode="&#x2013;" horiz-adv-x="500" 
d="M-8 230v46h515v-46h-515z" />
    <glyph glyph-name="dagger" unicode="&#x2020;" horiz-adv-x="375" 
d="M145 639v93h85v-95l-28 -129l85 30h55v-86h-50l-90 32l30 -113v-95l-26 -444h-34l-26 439v101l25 111l-85 -33h-52v87h55l82 -28z" />
    <glyph glyph-name="daggerdbl" unicode="&#x2021;" horiz-adv-x="375" 
d="M149 636v96h86v-82l-32 -142l86 30h55v-87h-51l-88 32l25 -178v-56l-29 -171l84 34h53v-87h-56l-84 29l29 -136v-88h-85v92l29 133l-87 -31h-53v87h58l82 -33l-26 170v66l31 170l-86 -33h-55v87h57l82 -29z" />
    <glyph glyph-name="periodcentered" unicode="&#xb7;" horiz-adv-x="167" 
d="M44 300v111h80v-111h-80z" />
    <glyph glyph-name="paragraph" unicode="&#xb6;" horiz-adv-x="650" 
d="M458 664h-130v-848h-64v505c-154 0 -219 98 -219 207c0 124 92 204 234 204h337v-68h-96v-848h-62v848z" />
    <glyph glyph-name="bullet" unicode="&#x2022;" horiz-adv-x="500" 
d="M371 349c0 -67 -54 -122 -121 -122s-122 56 -122 124c0 67 54 121 122 121c67 0 121 -55 121 -123z" />
    <glyph glyph-name="quotesinglbase" unicode="&#x201a;" horiz-adv-x="167" 
d="M43 0v113h81v-129l-79 -122l-27 23l75 115h-50z" />
    <glyph glyph-name="quotedblbase" unicode="&#x201e;" horiz-adv-x="302" 
d="M43 0v113h81v-129l-79 -122l-27 23l74 115h-49zM178 0v113h81v-129l-79 -122l-27 23l75 115h-50z" />
    <glyph glyph-name="quotedblright" unicode="&#x201d;" horiz-adv-x="302" 
d="M43 621v111h81v-124l-75 -93l-19 24l60 82h-47zM178 621v111h81v-124l-75 -93l-19 24l60 82h-47z" />
    <glyph glyph-name="guillemotright" unicode="&#xbb;" 
d="M90 277l-73 201h59l86 -199l-85 -200h-57zM223 276l-73 202h59l87 -200l-84 -199h-59z" />
    <glyph glyph-name="ellipsis" unicode="&#x2026;" horiz-adv-x="615" 
d="M473 0v111h80v-111h-80zM268 0v111h80v-111h-80zM63 0v110h80v-110h-80z" />
    <glyph glyph-name="perthousand" unicode="&#x2030;" horiz-adv-x="854" 
d="M412 224v-118c0 -59 15 -83 44 -83c28 0 39 27 39 83v118c0 56 -12 78 -42 78c-28 0 -41 -22 -41 -78zM346 97v133c0 77 39 121 108 121c67 0 107 -45 107 -121v-133c0 -79 -36 -125 -105 -125c-71 0 -110 46 -110 125zM103 613v-118c0 -59 15 -83 44 -83
c28 0 39 27 39 83v118c0 56 -12 78 -42 78c-28 0 -41 -22 -41 -78zM37 486v133c0 77 39 121 108 121c67 0 107 -45 107 -121v-133c0 -79 -36 -125 -105 -125c-71 0 -110 46 -110 125zM669 224v-118c0 -59 15 -83 44 -83c28 0 39 27 39 83v118c0 56 -12 78 -42 78
c-28 0 -41 -22 -41 -78zM603 97v133c0 77 39 121 108 121c67 0 107 -45 107 -121v-133c0 -79 -36 -125 -105 -125c-71 0 -110 46 -110 125zM97 -27l371 769h35l-371 -769h-35z" />
    <glyph glyph-name="questiondown" unicode="&#xbf;" horiz-adv-x="271" 
d="M105 446v109h77v-109h-77zM113 302v70h64v-69c0 -51 -15 -110 -40 -154c-18 -32 -38 -71 -38 -150c0 -89 11 -117 48 -117c26 0 40 27 40 79v95h69v-84c0 -101 -39 -153 -115 -153c-79 0 -120 61 -120 180c0 89 20 120 41 153c20 32 51 84 51 150z" />
    <glyph glyph-name="grave" unicode="`" horiz-adv-x="333" 
d="M54 714h98l62 -129h-50z" />
    <glyph glyph-name="acute" unicode="&#xb4;" horiz-adv-x="333" 
d="M119 585l63 129h97l-110 -129h-50z" />
    <glyph glyph-name="circumflex" unicode="&#x2c6;" horiz-adv-x="333" 
d="M31 585l96 129h80l96 -129h-67l-68 89l-68 -89h-69z" />
    <glyph glyph-name="tilde" unicode="&#x2dc;" horiz-adv-x="333" 
d="M165 673l48 -15c10 -3 16 -4 19 -4c20 0 32 13 35 38h46c-4 -58 -29 -92 -68 -92c-20 0 -32 3 -84 23c-28 10 -51 16 -64 16c-22 0 -31 -10 -34 -39h-43c4 62 25 92 65 92c16 0 26 -3 80 -19z" />
    <glyph glyph-name="macron" unicode="&#xaf;" horiz-adv-x="333" 
d="M19 598v54h295v-54h-295z" />
    <glyph glyph-name="breve" unicode="&#x2d8;" horiz-adv-x="333" 
d="M252 704h51c-8 -69 -53 -115 -137 -115c-75 0 -125 43 -135 115h52c5 -45 33 -67 87 -67c49 0 72 19 82 67z" />
    <glyph glyph-name="dotaccent" unicode="&#x2d9;" horiz-adv-x="333" 
d="M126 591v94h82v-94h-82z" />
    <glyph glyph-name="dieresis" unicode="&#xa8;" horiz-adv-x="333" 
d="M61 591v85h60v-85h-60zM212 591v85h60v-85h-60z" />
    <glyph glyph-name="ring" unicode="&#x2da;" horiz-adv-x="333" 
d="M254 650c0 -49 -39 -88 -88 -88c-48 0 -87 39 -87 88s39 88 87 88s88 -39 88 -88zM223 649c0 31 -25 56 -57 56c-30 0 -55 -25 -55 -56s25 -55 55 -55c32 0 57 24 57 55z" />
    <glyph glyph-name="cedilla" unicode="&#xb8;" horiz-adv-x="333" 
d="M110 -71l23 82h50l-17 -60c56 -2 87 -25 87 -67c0 -53 -54 -82 -150 -82c-17 0 -26 1 -51 4l4 41c22 -2 30 -2 40 -2c56 0 90 17 90 45c0 14 -11 43 -76 39z" />
    <glyph glyph-name="hungarumlaut" unicode="&#x2dd;" horiz-adv-x="333" 
d="M64 585l63 125h97l-107 -125h-53zM211 585l63 125h95l-108 -125h-50z" />
    <glyph glyph-name="ogonek" unicode="&#x2db;" horiz-adv-x="333" 
d="M296 -130v-41c-44 -22 -81 -26 -102 -26c-57 0 -94 42 -94 108c0 22 7 58 20 100h45c-11 -35 -16 -60 -16 -80c0 -49 27 -78 73 -78c21 0 40 4 74 17z" />
    <glyph glyph-name="caron" unicode="&#x2c7;" horiz-adv-x="333" 
d="M303 714l-96 -129h-81l-95 129h66l69 -89l67 89h70z" />
    <glyph glyph-name="emdash" unicode="&#x2014;" horiz-adv-x="1000" 
d="M-7 230v46h1015v-46h-1015z" />
    <glyph glyph-name="AE" unicode="&#xc6;" horiz-adv-x="510" 
d="M241 664h-18l-64 -346h82v346zM22 0l143 732h313v-79h-155v-239h137v-76h-136v-260h168v-78h-250v242h-98l-43 -242h-79z" />
    <glyph glyph-name="ordfeminine" unicode="&#xaa;" horiz-adv-x="198" 
d="M121 504v79c-5 -2 -6 -3 -13 -6c-31 -12 -39 -27 -39 -72v-23c0 -19 7 -30 19 -30c19 0 33 23 33 52zM76 640h-41v24c0 51 22 77 66 77c40 0 66 -25 66 -62v-211c0 -13 7 -19 22 -19v-37c-14 -2 -20 -3 -26 -3c-29 0 -39 11 -42 46c-15 -33 -31 -46 -56 -46
c-32 0 -45 25 -45 90c0 89 32 101 72 114c18 6 20 7 29 13v41c0 23 -6 31 -23 31c-13 0 -22 -14 -22 -32v-26z" />
    <glyph glyph-name="Lslash" unicode="&#x141;" 
d="M56 383v349h83v-272l62 72v-95l-62 -72v-287h153v-78h-236v288l-44 -51v95z" />
    <glyph glyph-name="Oslash" unicode="&#xd8;" horiz-adv-x="344" 
d="M263 708l10 32h42l-25 -76c12 -27 17 -61 17 -101v-401c0 -107 -49 -168 -133 -168c-38 0 -69 12 -91 36l-12 -36h-42l26 80c-12 25 -17 56 -17 93v395c0 117 46 179 135 179c39 0 69 -11 90 -33zM223 459l-100 -306c1 -59 16 -81 51 -81c34 0 49 26 49 85v302zM122 278
l101 307c-1 57 -16 78 -51 78c-36 0 -50 -25 -50 -91v-294z" />
    <glyph glyph-name="OE" unicode="&#x152;" horiz-adv-x="479" 
d="M223 78v575c-70 1 -90 -6 -90 -99v-351c0 -103 10 -125 56 -125h34zM467 78v-78h-276c-102 0 -143 50 -143 176v391c0 111 53 165 164 165h241v-79h-148v-239h129v-76h-129v-260h162z" />
    <glyph glyph-name="ordmasculine" unicode="&#xba;" horiz-adv-x="198" 
d="M73 664v-175c0 -25 9 -39 27 -39s26 16 26 48v156c0 29 -9 46 -27 46c-14 0 -26 -17 -26 -36zM24 514v128c0 61 28 99 73 99c49 0 78 -34 78 -93v-148c0 -55 -30 -92 -74 -92c-51 0 -77 36 -77 106z" />
    <glyph glyph-name="ae" unicode="&#xe6;" horiz-adv-x="448" 
d="M269 315h81v70c0 53 -14 73 -41 73c-25 0 -40 -20 -40 -55v-88zM54 363v35c0 83 33 126 97 126c36 0 60 -13 77 -42c26 31 46 42 80 42c78 0 112 -61 112 -202v-68h-151v-118c0 -46 13 -72 43 -72c26 0 39 28 39 80v57h69v-34c0 -109 -30 -171 -107 -171
c-45 0 -77 19 -97 55c-23 -34 -56 -55 -88 -55c-57 0 -88 47 -88 135v47c0 82 44 103 110 129c28 11 32 13 45 23v73c0 33 -14 54 -38 54c-27 0 -41 -20 -41 -60v-34h-62zM196 93v179c-10 -7 -13 -9 -28 -17c-41 -21 -53 -39 -53 -73v-59c0 -40 11 -58 36 -58
c15 0 34 12 45 28z" />
    <glyph glyph-name="dotlessi" unicode="&#x131;" horiz-adv-x="167" 
d="M46 0v518h75v-518h-75z" />
    <glyph glyph-name="lslash" unicode="&#x142;" horiz-adv-x="167" 
d="M51 0v323l-45 -55v65l45 55v344h74v-272l45 55v-65l-45 -55v-395h-74z" />
    <glyph glyph-name="oslash" unicode="&#xf8;" 
d="M199 326l-84 -199c0 -44 14 -65 41 -65c28 0 43 24 43 71v193zM114 200l84 198c-1 38 -17 61 -42 61c-26 0 -42 -27 -42 -69v-190zM238 491l17 41l27 -11l-25 -59c12 -25 18 -58 18 -98v-207c0 -105 -41 -161 -116 -161c-36 0 -64 12 -85 35l-17 -41l-27 12l25 59
c-11 25 -17 57 -17 96v210c0 100 42 158 118 158c35 0 63 -12 82 -34z" />
    <glyph glyph-name="oe" unicode="&#x153;" horiz-adv-x="448" 
d="M269 313h79v77c0 44 -13 66 -40 66c-28 0 -39 -19 -39 -66v-77zM42 174v199c0 97 37 150 105 150c41 0 62 -12 84 -48c21 34 44 48 80 48c67 0 106 -62 106 -169v-102h-148v-122c0 -45 14 -68 42 -68c22 0 39 24 39 58v78h67v-51c0 -98 -39 -151 -107 -151
c-34 0 -59 14 -80 44c-20 -30 -47 -44 -82 -44c-73 0 -106 56 -106 178zM116 397v-271c0 -44 14 -65 42 -65c24 0 39 18 39 65v270c0 38 -15 62 -39 62c-27 0 -42 -22 -42 -61z" />
    <glyph glyph-name="germandbls" unicode="&#xdf;" 
d="M122 1h-73v603c0 81 41 132 107 132c77 0 114 -53 114 -163c0 -83 -13 -111 -63 -133c46 -19 67 -60 67 -131v-183c0 -83 -30 -131 -82 -131c-7 0 -22 3 -32 6v61c29 -7 38 16 38 34v226c0 64 -9 83 -40 89v56c30 4 38 18 38 64v52c0 67 -10 90 -39 90
c-22 0 -35 -22 -35 -60v-612z" />
    <glyph glyph-name="divide" unicode="&#xf7;" horiz-adv-x="668" 
d="M291 526c1 22 19 39 41 39c23 0 41 -18 41 -41c0 -22 -18 -41 -40 -41c-23 0 -42 19 -42 43zM291 122c0 23 19 41 42 41s41 -18 41 -41s-18 -41 -41 -41s-42 18 -42 41zM68 292v62h531v-62h-531z" />
    <glyph glyph-name="threequarters" unicode="&#xbe;" horiz-adv-x="573" 
d="M445 93v177l-59 -177h59zM329 95l83 251h72v-254h49v-51h-49v-61h-59v61h-96v54zM96 -27l371 768h34l-370 -768h-35zM103 539v46h11c50 0 64 15 64 55c0 31 -12 47 -35 47c-21 0 -36 -18 -36 -47v-10h-57c0 51 18 106 94 106c57 0 96 -35 96 -90c0 -42 -9 -69 -60 -82
c48 -9 65 -35 65 -90c0 -66 -38 -107 -100 -107c-93 0 -101 65 -101 124h59v-20c0 -37 15 -54 42 -54c22 0 37 18 37 61c0 47 -12 61 -62 61h-17z" />
    <glyph glyph-name="onequarter" unicode="&#xbc;" horiz-adv-x="573" 
d="M432 93v177l-59 -177h59zM316 95l83 251h72v-254h49v-51h-49v-61h-59v61h-96v54zM51 655v37c44 6 63 15 87 43h29v-365h-59v285h-57zM64 -27l370 768h34l-370 -768h-34z" />
    <glyph glyph-name="onesuperior" unicode="&#xb9;" horiz-adv-x="240" 
d="M41 655v37c44 6 63 15 87 43h29v-364h-59v284h-57z" />
    <glyph glyph-name="multiply" unicode="&#xd7;" horiz-adv-x="668" 
d="M289 323l-199 199l45 46l199 -200l200 200l45 -46l-199 -199l197 -198l-45 -45l-198 198l-198 -198l-45 45z" />
    <glyph glyph-name="registered" unicode="&#xae;" horiz-adv-x="800" 
d="M773 367c0 -206 -167 -373 -373 -373s-373 167 -373 373s167 373 373 373s373 -167 373 -373zM728 367c0 181 -147 328 -328 328s-328 -147 -328 -328s147 -328 328 -328s328 147 328 328zM249 166v393h163c83 0 133 -39 133 -105c0 -17 -5 -35 -13 -51
c-26 -47 -66 -53 -103 -59c29 -11 42 -20 55 -35c21 -24 37 -55 75 -143h-59c-64 141 -78 171 -179 171h-22v-171h-50zM299 519v-141h64c90 0 124 20 124 73c0 51 -28 68 -116 68h-72z" />
    <glyph glyph-name="Thorn" unicode="&#xde;" horiz-adv-x="344" 
d="M134 488v-246h25c57 0 69 18 69 98v69c0 55 -18 79 -60 79h-34zM134 165v-165h-84v732h84v-167h26c118 0 156 -50 156 -205c0 -139 -37 -195 -129 -195h-53z" />
    <glyph glyph-name="brokenbar" unicode="&#xa6;" horiz-adv-x="527" 
d="M231 -175v350h64v-350h-64zM231 325v350h64v-350h-64z" />
    <glyph glyph-name="Eth" unicode="&#xd0;" horiz-adv-x="344" 
d="M124 338v-260h39c45 0 58 18 58 91v388c0 76 -13 98 -59 98h-38v-252h54v-65h-54zM41 0v338h-40v65h40v329h124c102 0 141 -54 141 -191v-356c0 -134 -39 -185 -138 -185h-127z" />
    <glyph glyph-name="onehalf" unicode="&#xbd;" horiz-adv-x="573" 
d="M374 210h-59c0 40 0 134 95 134c62 0 100 -39 100 -100c0 -52 -14 -75 -75 -124c-46 -36 -58 -53 -64 -88h95v48h47v-100h-205c4 77 20 108 83 166c41 37 53 59 53 96c0 32 -13 51 -34 51c-22 0 -36 -17 -36 -45v-38zM46 655v37c44 6 63 15 87 43h29v-365h-59v285h-57z
M51 -27l370 768h35l-370 -768h-35z" />
    <glyph glyph-name="minus" unicode="&#x2212;" horiz-adv-x="667" 
d="M68 292v64h531v-64h-531z" />
    <glyph glyph-name="ccedilla" unicode="&#xe7;" horiz-adv-x="281" 
d="M183 225h73v-84c0 -88 -34 -138 -99 -145l-13 -47c56 -2 87 -25 87 -67c0 -53 -54 -82 -150 -82c-17 0 -26 1 -51 4l4 41c22 -2 30 -2 40 -2c56 0 90 17 90 45c0 14 -11 43 -76 39l22 73c-50 9 -79 52 -79 140v242c0 91 39 142 113 142c65 0 109 -48 109 -127v-95h-72v95
c0 41 -11 60 -37 60s-38 -22 -38 -70v-251c0 -53 12 -72 39 -72c24 0 38 21 38 69v92z" />
    <glyph glyph-name="eth" unicode="&#xf0;" 
d="M112 377v-237c0 -53 14 -79 44 -79s44 26 44 85v242c0 45 -16 73 -42 73c-31 0 -46 -27 -46 -84zM195 680l59 34l18 -30l-56 -33c52 -82 60 -206 60 -312v-169c0 -112 -42 -174 -118 -174c-74 0 -120 56 -120 146v220c0 96 42 161 105 161c18 0 37 -6 52 -17
c-4 41 -12 80 -27 117l-58 -34l-18 31l61 35c-12 22 -27 42 -46 61l30 23c21 -14 39 -33 58 -59z" />
    <glyph glyph-name="plusminus" unicode="&#xb1;" horiz-adv-x="667" 
d="M68 395v64h233v234h64v-234h234v-64h-234v-234h-64v234h-233zM68 0v64h531v-64h-531z" />
    <glyph glyph-name="Ccedilla" unicode="&#xc7;" horiz-adv-x="344" 
d="M224 306h83v-153c0 -86 -41 -150 -116 -160l-13 -44c56 -2 87 -25 87 -67c0 -53 -54 -82 -150 -82c-17 0 -26 1 -51 4l4 41c22 -2 30 -2 40 -2c56 0 90 17 90 45c0 14 -11 43 -76 39l19 70c-61 11 -100 69 -100 155v412c0 115 44 177 126 177c91 0 135 -59 135 -182v-99
h-83v96c0 56 -2 107 -46 107c-48 0 -48 -59 -48 -128v-390c0 -46 19 -73 51 -73s48 27 48 73v161z" />
    <glyph glyph-name="thorn" unicode="&#xfe;" 
d="M46 -180v912h75v-275c23 46 45 65 80 65c47 0 74 -49 74 -133v-271c0 -80 -25 -122 -71 -122c-33 0 -54 15 -82 58v-234h-76zM121 349v-174c0 -79 17 -115 47 -115c20 0 31 13 31 51v279c0 48 -9 67 -32 67c-31 0 -46 -35 -46 -108z" />
    <glyph glyph-name="copyright" unicode="&#xa9;" horiz-adv-x="800" 
d="M562 462l-49 -13c-24 54 -62 77 -111 77c-80 0 -130 -59 -130 -157c0 -101 50 -167 129 -167c81 0 106 58 118 96l47 -16c-27 -77 -77 -128 -164 -128c-106 0 -187 92 -187 211c0 121 78 205 186 205c62 0 117 -22 161 -108zM773 367c0 -206 -167 -373 -373 -373
s-373 167 -373 373c0 205 167 373 373 373s373 -168 373 -373zM728 367c0 181 -147 328 -328 328s-328 -147 -328 -328s147 -328 328 -328s328 147 328 328z" />
    <glyph glyph-name="logicalnot" unicode="&#xac;" horiz-adv-x="667" 
d="M68 412v64h531v-302h-64v238h-467z" />
    <glyph glyph-name="twosuperior" unicode="&#xb2;" horiz-adv-x="240" 
d="M85 602h-59c0 40 0 134 96 134c62 0 100 -39 100 -100c0 -52 -14 -75 -75 -125c-46 -36 -58 -52 -64 -88h95v49h47v-101h-205c5 78 21 109 83 166c41 38 53 59 53 97c0 32 -13 51 -35 51s-36 -17 -36 -45v-38z" />
    <glyph glyph-name="threesuperior" unicode="&#xb3;" horiz-adv-x="240" 
d="M78 539v46h11c50 0 64 15 64 55c0 31 -12 47 -35 47c-21 0 -36 -18 -36 -47v-10h-57c0 51 18 106 94 106c57 0 96 -35 96 -90c0 -42 -9 -69 -60 -82c48 -9 65 -35 65 -90c0 -66 -38 -107 -100 -107c-93 0 -101 65 -101 124h59v-20c0 -37 15 -54 42 -54c22 0 37 18 37 61
c0 47 -12 61 -62 61h-17z" />
    <glyph glyph-name="trademark" unicode="&#x2122;" horiz-adv-x="940" 
d="M95 689v43h310v-43h-130v-356h-50v356h-130zM451 333v399h74l100 -319l104 319h76v-399h-45v356l-118 -356h-34l-112 356v-356h-45z" />
    <glyph glyph-name="degree" unicode="&#xb0;" horiz-adv-x="400" 
d="M341 598c0 -76 -63 -138 -140 -138c-79 0 -142 62 -142 138c0 78 63 141 141 141s141 -63 141 -141zM300 599c0 55 -45 100 -100 100s-100 -45 -100 -100s45 -99 100 -99s100 44 100 99z" />
    <glyph glyph-name="mu" unicode="&#xb5;" horiz-adv-x="556" 
d="M408 0v62c-20 -31 -48 -74 -127 -74c-75 0 -105 38 -126 65v-251h-87v716h87v-251c0 -117 19 -199 122 -199c100 0 123 78 123 199v251h87v-518h-79z" />
    <glyph glyph-name="Aacute" unicode="&#xc1;" horiz-adv-x="344" 
d="M213 270l-41 391l-42 -391h83zM21 0l95 732h111l96 -732h-78l-23 197h-100l-23 -197h-78zM125 799l63 129h97l-110 -129h-50z" />
    <glyph glyph-name="Acircumflex" unicode="&#xc2;" horiz-adv-x="344" 
d="M213 270l-41 391l-42 -391h83zM21 0l95 732h111l96 -732h-78l-23 197h-100l-23 -197h-78zM37 799l96 129h80l96 -129h-67l-68 89l-68 -89h-69z" />
    <glyph glyph-name="Adieresis" unicode="&#xc4;" horiz-adv-x="344" 
d="M213 270l-41 391l-42 -391h83zM21 0l95 732h111l96 -732h-78l-23 197h-100l-23 -197h-78zM67 805v85h60v-85h-60zM218 805v85h60v-85h-60z" />
    <glyph glyph-name="Agrave" unicode="&#xc0;" horiz-adv-x="344" 
d="M213 270l-41 391l-42 -391h83zM21 0l95 732h111l96 -732h-78l-23 197h-100l-23 -197h-78zM60 928h98l62 -129h-50z" />
    <glyph glyph-name="Aring" unicode="&#xc5;" horiz-adv-x="344" 
d="M213 270l-41 391l-42 -391h83zM21 0l95 732h111l96 -732h-78l-23 197h-100l-23 -197h-78zM260 864c0 -49 -39 -88 -88 -88c-48 0 -87 39 -87 88s39 88 87 88s88 -39 88 -88zM229 863c0 31 -25 56 -57 56c-30 0 -55 -25 -55 -56s25 -55 55 -55c32 0 57 24 57 55z" />
    <glyph glyph-name="Atilde" unicode="&#xc3;" horiz-adv-x="344" 
d="M213 270l-41 391l-42 -391h83zM21 0l95 732h111l96 -732h-78l-23 197h-100l-23 -197h-78zM171 887l48 -15c10 -3 16 -4 19 -4c20 0 32 13 35 38h46c-4 -58 -29 -92 -68 -92c-20 0 -32 3 -84 23c-28 10 -51 16 -64 16c-22 0 -31 -10 -34 -39h-43c4 62 25 92 65 92
c16 0 26 -3 80 -19z" />
    <glyph glyph-name="Eacute" unicode="&#xc9;" 
d="M48 0v732h236v-78h-152v-240h131v-76h-131v-260h163v-78h-247zM109 799l63 129h97l-110 -129h-50z" />
    <glyph glyph-name="Ecircumflex" unicode="&#xca;" 
d="M48 0v732h236v-78h-152v-240h131v-76h-131v-260h163v-78h-247zM21 799l96 129h80l96 -129h-67l-68 89l-68 -89h-69z" />
    <glyph glyph-name="Edieresis" unicode="&#xcb;" 
d="M48 0v732h236v-78h-152v-240h131v-76h-131v-260h163v-78h-247zM51 805v85h60v-85h-60zM202 805v85h60v-85h-60z" />
    <glyph glyph-name="Egrave" unicode="&#xc8;" 
d="M48 0v732h236v-78h-152v-240h131v-76h-131v-260h163v-78h-247zM44 928h98l62 -129h-50z" />
    <glyph glyph-name="Iacute" unicode="&#xcd;" horiz-adv-x="167" 
d="M42 0v732h84v-732h-84zM36 799l63 129h97l-110 -129h-50z" />
    <glyph glyph-name="Icircumflex" unicode="&#xce;" horiz-adv-x="167" 
d="M42 0v732h84v-732h-84zM-52 799l96 129h80l96 -129h-67l-68 89l-68 -89h-69z" />
    <glyph glyph-name="Idieresis" unicode="&#xcf;" horiz-adv-x="167" 
d="M42 0v732h84v-732h-84zM-22 805v85h60v-85h-60zM129 805v85h60v-85h-60z" />
    <glyph glyph-name="Igrave" unicode="&#xcc;" horiz-adv-x="167" 
d="M42 0v732h84v-732h-84zM-29 928h98l62 -129h-50z" />
    <glyph glyph-name="Ntilde" unicode="&#xd1;" horiz-adv-x="344" 
d="M45 0v732h71l108 -453h4v453h71v-732h-69l-110 454h-3v-454h-72zM171 887l48 -15c10 -3 16 -4 19 -4c20 0 32 13 35 38h46c-4 -58 -29 -92 -68 -92c-20 0 -32 3 -84 23c-28 10 -51 16 -64 16c-22 0 -31 -10 -34 -39h-43c4 62 25 92 65 92c16 0 26 -3 80 -19z" />
    <glyph glyph-name="Oacute" unicode="&#xd3;" horiz-adv-x="344" 
d="M223 157v417c0 66 -14 89 -51 89c-36 0 -50 -25 -50 -91v-404c0 -70 14 -96 52 -96c34 0 49 26 49 85zM307 571v-404c0 -112 -49 -173 -133 -173c-88 0 -136 64 -136 173v403c0 105 46 171 135 171s134 -64 134 -170zM125 799l63 129h97l-110 -129h-50z" />
    <glyph glyph-name="Ocircumflex" unicode="&#xd4;" horiz-adv-x="344" 
d="M223 157v417c0 66 -14 89 -51 89c-36 0 -50 -25 -50 -91v-404c0 -70 14 -96 52 -96c34 0 49 26 49 85zM307 571v-404c0 -112 -49 -173 -133 -173c-88 0 -136 64 -136 173v403c0 105 46 171 135 171s134 -64 134 -170zM37 799l96 129h80l96 -129h-67l-68 89l-68 -89h-69z
" />
    <glyph glyph-name="Odieresis" unicode="&#xd6;" horiz-adv-x="344" 
d="M223 157v417c0 66 -14 89 -51 89c-36 0 -50 -25 -50 -91v-404c0 -70 14 -96 52 -96c34 0 49 26 49 85zM307 571v-404c0 -112 -49 -173 -133 -173c-88 0 -136 64 -136 173v403c0 105 46 171 135 171s134 -64 134 -170zM67 805v85h60v-85h-60zM218 805v85h60v-85h-60z" />
    <glyph glyph-name="Ograve" unicode="&#xd2;" horiz-adv-x="344" 
d="M223 157v417c0 66 -14 89 -51 89c-36 0 -50 -25 -50 -91v-404c0 -70 14 -96 52 -96c34 0 49 26 49 85zM307 571v-404c0 -112 -49 -173 -133 -173c-88 0 -136 64 -136 173v403c0 105 46 171 135 171s134 -64 134 -170zM60 928h98l62 -129h-50z" />
    <glyph glyph-name="Otilde" unicode="&#xd5;" horiz-adv-x="344" 
d="M223 157v417c0 66 -14 89 -51 89c-36 0 -50 -25 -50 -91v-404c0 -70 14 -96 52 -96c34 0 49 26 49 85zM307 571v-404c0 -112 -49 -173 -133 -173c-88 0 -136 64 -136 173v403c0 105 46 171 135 171s134 -64 134 -170zM171 887l48 -15c10 -3 16 -4 19 -4c20 0 32 13 35 38
h46c-4 -58 -29 -92 -68 -92c-20 0 -32 3 -84 23c-28 10 -51 16 -64 16c-22 0 -31 -10 -34 -39h-43c4 62 25 92 65 92c16 0 26 -3 80 -19z" />
    <glyph glyph-name="Scaron" unicode="&#x160;" horiz-adv-x="344" 
d="M38 265h79v-84c0 -75 19 -111 62 -111c36 0 53 35 53 100c0 80 -24 108 -76 162c-79 84 -118 125 -118 238c0 109 47 170 133 170c83 0 128 -61 128 -171v-85h-77v56c0 92 -13 122 -51 122c-36 0 -51 -25 -51 -82c0 -75 11 -98 88 -177l21 -22c66 -70 85 -115 85 -205
c0 -84 -30 -183 -133 -183c-95 0 -143 62 -143 188v84zM309 928l-96 -129h-81l-95 129h66l69 -89l67 89h70z" />
    <glyph glyph-name="Uacute" unicode="&#xda;" horiz-adv-x="344" 
d="M300 732v-581c0 -61 -9 -94 -34 -120c-25 -24 -58 -38 -93 -38c-33 0 -70 14 -92 36c-26 26 -37 61 -37 126v577h83v-583c0 -54 13 -76 47 -76c28 0 43 20 43 75v584h83zM125 799l63 129h97l-110 -129h-50z" />
    <glyph glyph-name="Ucircumflex" unicode="&#xdb;" horiz-adv-x="344" 
d="M300 732v-581c0 -61 -9 -94 -34 -120c-25 -24 -58 -38 -93 -38c-33 0 -70 14 -92 36c-26 26 -37 61 -37 126v577h83v-583c0 -54 13 -76 47 -76c28 0 43 20 43 75v584h83zM37 799l96 129h80l96 -129h-67l-68 89l-68 -89h-69z" />
    <glyph glyph-name="Udieresis" unicode="&#xdc;" horiz-adv-x="344" 
d="M300 732v-581c0 -61 -9 -94 -34 -120c-25 -24 -58 -38 -93 -38c-33 0 -70 14 -92 36c-26 26 -37 61 -37 126v577h83v-583c0 -54 13 -76 47 -76c28 0 43 20 43 75v584h83zM67 805v85h60v-85h-60zM218 805v85h60v-85h-60z" />
    <glyph glyph-name="Ugrave" unicode="&#xd9;" horiz-adv-x="344" 
d="M300 732v-581c0 -61 -9 -94 -34 -120c-25 -24 -58 -38 -93 -38c-33 0 -70 14 -92 36c-26 26 -37 61 -37 126v577h83v-583c0 -54 13 -76 47 -76c28 0 43 20 43 75v584h83zM60 928h98l62 -129h-50z" />
    <glyph glyph-name="Yacute" unicode="&#xdd;" horiz-adv-x="344" 
d="M133 309l-114 423h84l71 -303l68 303h83l-109 -421v-311h-83v309zM125 799l63 129h97l-110 -129h-50z" />
    <glyph glyph-name="Ydieresis" unicode="&#x178;" horiz-adv-x="344" 
d="M133 309l-114 423h84l71 -303l68 303h83l-109 -421v-311h-83v309zM67 805v85h60v-85h-60zM218 805v85h60v-85h-60z" />
    <glyph glyph-name="Zcaron" unicode="&#x17d;" horiz-adv-x="281" 
d="M38 656v76h215v-74l-144 -579h151v-79h-236v73l145 583h-131zM277 928l-96 -129h-81l-95 129h66l69 -89l67 89h70z" />
    <glyph glyph-name="aacute" unicode="&#xe1;" 
d="M187 149v123c-9 -4 -13 -6 -22 -10c-37 -16 -59 -25 -59 -124c0 -58 6 -73 30 -73c29 0 51 36 51 84zM296 61v-60c-9 -3 -22 -5 -38 -5c-47 0 -66 19 -71 70c-28 -54 -49 -70 -88 -70c-52 0 -71 36 -71 140c0 114 24 155 112 183c26 9 33 12 47 20v74c0 28 -12 43 -35 43
c-21 0 -35 -19 -35 -49v-42h-66v25c0 94 32 133 108 133c63 0 103 -41 103 -106v-322c0 -26 8 -34 34 -34zM109 585l63 129h97l-110 -129h-50z" />
    <glyph glyph-name="acircumflex" unicode="&#xe2;" 
d="M187 149v123c-9 -4 -13 -6 -22 -10c-37 -16 -59 -25 -59 -124c0 -58 6 -73 30 -73c29 0 51 36 51 84zM296 61v-60c-9 -3 -22 -5 -38 -5c-47 0 -66 19 -71 70c-28 -54 -49 -70 -88 -70c-52 0 -71 36 -71 140c0 114 24 155 112 183c26 9 33 12 47 20v74c0 28 -12 43 -35 43
c-21 0 -35 -19 -35 -49v-42h-66v25c0 94 32 133 108 133c63 0 103 -41 103 -106v-322c0 -26 8 -34 34 -34zM21 585l96 129h80l96 -129h-67l-68 89l-68 -89h-69z" />
    <glyph glyph-name="adieresis" unicode="&#xe4;" 
d="M187 149v123c-9 -4 -13 -6 -22 -10c-37 -16 -59 -25 -59 -124c0 -58 6 -73 30 -73c29 0 51 36 51 84zM296 61v-60c-9 -3 -22 -5 -38 -5c-47 0 -66 19 -71 70c-28 -54 -49 -70 -88 -70c-52 0 -71 36 -71 140c0 114 24 155 112 183c26 9 33 12 47 20v74c0 28 -12 43 -35 43
c-21 0 -35 -19 -35 -49v-42h-66v25c0 94 32 133 108 133c63 0 103 -41 103 -106v-322c0 -26 8 -34 34 -34zM51 591v85h60v-85h-60zM202 591v85h60v-85h-60z" />
    <glyph glyph-name="agrave" unicode="&#xe0;" 
d="M187 149v123c-9 -4 -13 -6 -22 -10c-37 -16 -59 -25 -59 -124c0 -58 6 -73 30 -73c29 0 51 36 51 84zM296 61v-60c-9 -3 -22 -5 -38 -5c-47 0 -66 19 -71 70c-28 -54 -49 -70 -88 -70c-52 0 -71 36 -71 140c0 114 24 155 112 183c26 9 33 12 47 20v74c0 28 -12 43 -35 43
c-21 0 -35 -19 -35 -49v-42h-66v25c0 94 32 133 108 133c63 0 103 -41 103 -106v-322c0 -26 8 -34 34 -34zM44 714h98l62 -129h-50z" />
    <glyph glyph-name="aring" unicode="&#xe5;" 
d="M187 149v123c-9 -4 -13 -6 -22 -10c-37 -16 -59 -25 -59 -124c0 -58 6 -73 30 -73c29 0 51 36 51 84zM296 61v-60c-9 -3 -22 -5 -38 -5c-47 0 -66 19 -71 70c-28 -54 -49 -70 -88 -70c-52 0 -71 36 -71 140c0 114 24 155 112 183c26 9 33 12 47 20v74c0 28 -12 43 -35 43
c-21 0 -35 -19 -35 -49v-42h-66v25c0 94 32 133 108 133c63 0 103 -41 103 -106v-322c0 -26 8 -34 34 -34zM244 650c0 -49 -39 -88 -88 -88c-48 0 -87 39 -87 88s39 88 87 88s88 -39 88 -88zM213 649c0 31 -25 56 -57 56c-30 0 -55 -25 -55 -56s25 -55 55 -55
c32 0 57 24 57 55z" />
    <glyph glyph-name="atilde" unicode="&#xe3;" 
d="M187 149v123c-9 -4 -13 -6 -22 -10c-37 -16 -59 -25 -59 -124c0 -58 6 -73 30 -73c29 0 51 36 51 84zM296 61v-60c-9 -3 -22 -5 -38 -5c-47 0 -66 19 -71 70c-28 -54 -49 -70 -88 -70c-52 0 -71 36 -71 140c0 114 24 155 112 183c26 9 33 12 47 20v74c0 28 -12 43 -35 43
c-21 0 -35 -19 -35 -49v-42h-66v25c0 94 32 133 108 133c63 0 103 -41 103 -106v-322c0 -26 8 -34 34 -34zM155 673l48 -15c10 -3 16 -4 19 -4c20 0 32 13 35 38h46c-4 -58 -29 -92 -68 -92c-20 0 -32 3 -84 23c-28 10 -51 16 -64 16c-22 0 -31 -10 -34 -39h-43
c4 62 25 92 65 92c16 0 26 -3 80 -19z" />
    <glyph glyph-name="eacute" unicode="&#xe9;" 
d="M121 311h81v66c0 54 -12 79 -43 79c-28 0 -38 -26 -38 -68v-77zM200 198h73v-42c0 -108 -39 -161 -111 -161c-99 0 -118 75 -118 207v145c0 116 39 177 113 177c79 0 119 -63 119 -185v-92h-156v-79c0 -73 7 -104 41 -104c30 0 39 27 39 78v56zM109 585l63 129h97
l-110 -129h-50z" />
    <glyph glyph-name="ecircumflex" unicode="&#xea;" 
d="M121 311h81v66c0 54 -12 79 -43 79c-28 0 -38 -26 -38 -68v-77zM200 198h73v-42c0 -108 -39 -161 -111 -161c-99 0 -118 75 -118 207v145c0 116 39 177 113 177c79 0 119 -63 119 -185v-92h-156v-79c0 -73 7 -104 41 -104c30 0 39 27 39 78v56zM21 585l96 129h80l96 -129
h-67l-68 89l-68 -89h-69z" />
    <glyph glyph-name="edieresis" unicode="&#xeb;" 
d="M121 311h81v66c0 54 -12 79 -43 79c-28 0 -38 -26 -38 -68v-77zM200 198h73v-42c0 -108 -39 -161 -111 -161c-99 0 -118 75 -118 207v145c0 116 39 177 113 177c79 0 119 -63 119 -185v-92h-156v-79c0 -73 7 -104 41 -104c30 0 39 27 39 78v56zM51 591v85h60v-85h-60z
M202 591v85h60v-85h-60z" />
    <glyph glyph-name="egrave" unicode="&#xe8;" 
d="M121 311h81v66c0 54 -12 79 -43 79c-28 0 -38 -26 -38 -68v-77zM200 198h73v-42c0 -108 -39 -161 -111 -161c-99 0 -118 75 -118 207v145c0 116 39 177 113 177c79 0 119 -63 119 -185v-92h-156v-79c0 -73 7 -104 41 -104c30 0 39 27 39 78v56zM44 714h98l62 -129h-50z
" />
    <glyph glyph-name="iacute" unicode="&#xed;" horiz-adv-x="167" 
d="M46 0v518h75v-518h-75zM36 585l63 129h97l-110 -129h-50z" />
    <glyph glyph-name="icircumflex" unicode="&#xee;" horiz-adv-x="167" 
d="M46 0v518h75v-518h-75zM-52 585l96 129h80l96 -129h-67l-68 89l-68 -89h-69z" />
    <glyph glyph-name="idieresis" unicode="&#xef;" horiz-adv-x="167" 
d="M46 0v518h75v-518h-75zM-22 591v85h60v-85h-60zM129 591v85h60v-85h-60z" />
    <glyph glyph-name="igrave" unicode="&#xec;" horiz-adv-x="167" 
d="M46 0v518h75v-518h-75zM-29 714h98l62 -129h-50z" />
    <glyph glyph-name="ntilde" unicode="&#xf1;" 
d="M40 0v518h75v-78c23 56 51 82 91 82c43 0 70 -35 70 -91v-431h-75v411c0 31 -11 48 -30 48c-33 0 -56 -55 -56 -134v-325h-75zM155 673l48 -15c10 -3 16 -4 19 -4c20 0 32 13 35 38h46c-4 -58 -29 -92 -68 -92c-20 0 -32 3 -84 23c-28 10 -51 16 -64 16
c-22 0 -31 -10 -34 -39h-43c4 62 25 92 65 92c16 0 26 -3 80 -19z" />
    <glyph glyph-name="oacute" unicode="&#xf3;" 
d="M114 388v-255c0 -48 14 -71 42 -71s43 24 43 71v255c0 43 -16 69 -43 69c-26 0 -42 -27 -42 -69zM38 157v208c0 100 42 158 118 158c77 0 119 -55 119 -161v-205c0 -105 -41 -161 -116 -161c-79 0 -121 57 -121 161zM109 585l63 129h97l-110 -129h-50z" />
    <glyph glyph-name="ocircumflex" unicode="&#xf4;" 
d="M114 388v-255c0 -48 14 -71 42 -71s43 24 43 71v255c0 43 -16 69 -43 69c-26 0 -42 -27 -42 -69zM38 157v208c0 100 42 158 118 158c77 0 119 -55 119 -161v-205c0 -105 -41 -161 -116 -161c-79 0 -121 57 -121 161zM21 585l96 129h80l96 -129h-67l-68 89l-68 -89h-69z
" />
    <glyph glyph-name="odieresis" unicode="&#xf6;" 
d="M114 388v-255c0 -48 14 -71 42 -71s43 24 43 71v255c0 43 -16 69 -43 69c-26 0 -42 -27 -42 -69zM38 157v208c0 100 42 158 118 158c77 0 119 -55 119 -161v-205c0 -105 -41 -161 -116 -161c-79 0 -121 57 -121 161zM51 591v85h60v-85h-60zM202 591v85h60v-85h-60z" />
    <glyph glyph-name="ograve" unicode="&#xf2;" 
d="M114 388v-255c0 -48 14 -71 42 -71s43 24 43 71v255c0 43 -16 69 -43 69c-26 0 -42 -27 -42 -69zM38 157v208c0 100 42 158 118 158c77 0 119 -55 119 -161v-205c0 -105 -41 -161 -116 -161c-79 0 -121 57 -121 161zM44 714h98l62 -129h-50z" />
    <glyph glyph-name="otilde" unicode="&#xf5;" 
d="M114 388v-255c0 -48 14 -71 42 -71s43 24 43 71v255c0 43 -16 69 -43 69c-26 0 -42 -27 -42 -69zM38 157v208c0 100 42 158 118 158c77 0 119 -55 119 -161v-205c0 -105 -41 -161 -116 -161c-79 0 -121 57 -121 161zM155 673l48 -15c10 -3 16 -4 19 -4c20 0 32 13 35 38
h46c-4 -58 -29 -92 -68 -92c-20 0 -32 3 -84 23c-28 10 -51 16 -64 16c-22 0 -31 -10 -34 -39h-43c4 62 25 92 65 92c16 0 26 -3 80 -19z" />
    <glyph glyph-name="scaron" unicode="&#x161;" horiz-adv-x="281" 
d="M24 193h67v-47c0 -57 16 -86 52 -86c28 0 46 22 46 60c0 46 -18 77 -75 128c-38 34 -82 76 -82 150c0 84 37 126 108 126c64 0 103 -45 103 -121v-48h-61v52c0 36 -17 59 -42 59c-27 0 -41 -18 -41 -54c0 -39 17 -67 69 -113c76 -67 90 -114 90 -167
c0 -83 -45 -136 -117 -136s-117 54 -117 142v55zM277 714l-96 -129h-81l-95 129h66l69 -89l67 89h70z" />
    <glyph glyph-name="uacute" unicode="&#xfa;" 
d="M38 88v430h75v-409c0 -38 10 -55 33 -55c28 0 52 45 52 99v365h75v-518h-75v66c-27 -48 -55 -70 -88 -70c-43 0 -72 37 -72 92zM109 585l63 129h97l-110 -129h-50z" />
    <glyph glyph-name="ucircumflex" unicode="&#xfb;" 
d="M38 88v430h75v-409c0 -38 10 -55 33 -55c28 0 52 45 52 99v365h75v-518h-75v66c-27 -48 -55 -70 -88 -70c-43 0 -72 37 -72 92zM21 585l96 129h80l96 -129h-67l-68 89l-68 -89h-69z" />
    <glyph glyph-name="udieresis" unicode="&#xfc;" 
d="M38 88v430h75v-409c0 -38 10 -55 33 -55c28 0 52 45 52 99v365h75v-518h-75v66c-27 -48 -55 -70 -88 -70c-43 0 -72 37 -72 92zM51 591v85h60v-85h-60zM202 591v85h60v-85h-60z" />
    <glyph glyph-name="ugrave" unicode="&#xf9;" 
d="M38 88v430h75v-409c0 -38 10 -55 33 -55c28 0 52 45 52 99v365h75v-518h-75v66c-27 -48 -55 -70 -88 -70c-43 0 -72 37 -72 92zM44 714h98l62 -129h-50z" />
    <glyph glyph-name="yacute" unicode="&#xfd;" horiz-adv-x="281" 
d="M120 0l-103 518h72l59 -376l38 376h72l-78 -548c-13 -94 -25 -150 -124 -150h-33v63c43 -2 74 1 84 52zM93 585l63 129h97l-110 -129h-50z" />
    <glyph glyph-name="ydieresis" unicode="&#xff;" horiz-adv-x="281" 
d="M120 0l-103 518h72l59 -376l38 376h72l-78 -548c-13 -94 -25 -150 -124 -150h-33v63c43 -2 74 1 84 52zM35 591v85h60v-85h-60zM186 591v85h60v-85h-60z" />
    <glyph glyph-name="zcaron" unicode="&#x17e;" horiz-adv-x="240" 
d="M91 66h134v-66h-210v69l132 383h-123v66h200v-62zM257 714l-96 -129h-81l-95 129h66l69 -89l67 89h70z" />
    </font>
</defs>
</svg>
