<?xml version="1.0" standalone="no"?>
<!DOCTYPE svg PUBLIC "-//W3C//DTD SVG 1.1//EN" "http://www.w3.org/Graphics/SVG/1.1/DTD/svg11.dtd" >
<svg>
<metadata>
Created by FontForge 20120731 at Fri Jul  5 12:39:18 2019
 By www
Copyright (c) 1992 Adobe Systems Incorporated. All Rights Reserved.Grotesque is a trademark of The Monotype Corporation plc registered in the U.S. Patent &#38; TM Office.
</metadata>
<defs>
<font id="GrotesqueMT-Condensed" horiz-adv-x="417" >
  <font-face 
    font-family="Grotesque MT"
    font-weight="500"
    font-stretch="condensed"
    units-per-em="1000"
    panose-1="0 0 0 0 0 0 0 0 0 0"
    ascent="800"
    descent="-200"
    x-height="560"
    cap-height="737"
    bbox="-136 -250 1009 942"
    underline-thickness="50"
    underline-position="-75"
    stemh="69"
    stemv="91"
    unicode-range="U+0020-FB02"
  />
<missing-glyph horiz-adv-x="209" 
 />
    <glyph glyph-name=".notdef" horiz-adv-x="209" 
 />
    <glyph glyph-name="space" unicode=" " horiz-adv-x="209" 
 />
    <glyph glyph-name="exclam" unicode="!" horiz-adv-x="229" 
d="M139 260h-48l-1 61c-2 106 -7 196 -16 275c-6 53 -9 78 -22 141h125c-17 -95 -30 -183 -36 -418zM70 0v163h89v-163h-89z" />
    <glyph glyph-name="quotedbl" unicode="&#x22;" horiz-adv-x="375" 
d="M131 484h-50l-20 136v117h90v-117zM294 484h-50l-20 136v117h90v-117z" />
    <glyph glyph-name="numbersign" unicode="#" horiz-adv-x="668" 
d="M42 434v70h156l42 194h70l-42 -194h196l41 194h70l-42 -194h93v-70h-106l-36 -171h142v-70h-155l-41 -193h-71l42 193h-197l-40 -193h-70l40 193h-92v70h107l36 171h-143zM450 434h-196l-35 -170h196z" />
    <glyph glyph-name="dollar" unicode="$" 
d="M179 457v188c-38 -15 -54 -39 -54 -82c0 -35 19 -72 54 -106zM237 263v-203c40 8 65 39 65 80s-21 82 -65 123zM180 713v38h58v-38c91 -6 141 -74 141 -150c0 -10 -1 -26 -4 -45h-87c2 16 3 23 3 32c0 48 -19 81 -53 92v-241c74 -63 157 -139 157 -245
c0 -94 -58 -155 -159 -165v-76h-57v77c-92 5 -146 73 -146 182c0 15 1 24 5 46h89c-3 -22 -3 -33 -3 -44c0 -60 18 -96 55 -111v255c-53 47 -145 127 -145 236c0 92 53 148 146 157z" />
    <glyph glyph-name="percent" unicode="%" horiz-adv-x="615" 
d="M142 354c-87 0 -102 32 -102 184c0 149 15 179 102 179c86 0 98 -29 98 -175c0 -155 -12 -188 -98 -188zM141 407c30 0 34 25 34 131c0 103 -5 127 -34 127c-32 0 -35 -25 -35 -127c0 -106 3 -131 35 -131zM478 355c86 0 98 -29 98 -175c0 -155 -12 -188 -98 -188
c-87 0 -102 32 -102 184c0 149 15 179 102 179zM477 45c30 0 34 25 34 131c0 103 -5 127 -34 127c-32 0 -35 -25 -35 -127c0 -106 3 -131 35 -131zM77 -21l389 738h66l-389 -738h-66z" />
    <glyph glyph-name="ampersand" unicode="&#x26;" horiz-adv-x="604" 
d="M254 518l14 9c54 38 74 62 74 93c0 26 -20 45 -48 45c-30 0 -53 -27 -53 -64c0 -24 3 -45 13 -83zM199 406c-31 -21 -78 -52 -78 -110c0 -28 16 -92 33 -133c22 -51 40 -80 73 -80c27 0 48 25 75 58c-60 133 -80 193 -103 265zM508 213h66c-3 -101 -16 -149 -50 -185
c-21 -22 -50 -35 -76 -35c-43 0 -78 26 -110 80c-50 -56 -89 -80 -132 -80c-31 0 -66 16 -88 40c-48 52 -84 154 -84 238c0 126 102 181 145 205c-13 40 -19 77 -19 116c0 85 57 145 132 145c69 0 122 -51 122 -115c0 -79 -56 -120 -117 -159l-19 -12c7 -24 41 -121 80 -209
c14 26 23 58 39 125h73c-11 -50 -35 -143 -73 -208c27 -51 44 -70 64 -70c24 -1 38 22 45 102z" />
    <glyph glyph-name="quoteright" unicode="&#x2019;" horiz-adv-x="229" 
d="M71 560v177h87v-167c0 -72 -33 -122 -96 -154l-11 42c38 28 53 56 55 102h-35z" />
    <glyph glyph-name="parenleft" unicode="(" horiz-adv-x="281" 
d="M251 -100v-44c-138 107 -206 272 -206 447c0 173 70 335 205 442v-44c-102 -122 -114 -251 -114 -407c0 -145 17 -282 115 -394z" />
    <glyph glyph-name="parenright" unicode=")" horiz-adv-x="281" 
d="M31 701v44c135 -107 205 -269 205 -442c0 -175 -68 -340 -206 -447v44c98 112 115 249 115 394c0 156 -12 285 -114 407z" />
    <glyph glyph-name="asterisk" unicode="*" horiz-adv-x="375" 
d="M76 713l67 37l46 -125l48 124l65 -39l-85 -103l133 22v-75l-133 23l84 -104l-67 -36l-45 123l-46 -125l-67 39l85 102l-135 -21v76l133 -22z" />
    <glyph glyph-name="plus" unicode="+" horiz-adv-x="667" 
d="M65 287v77h229v230h77v-230h230v-77h-230v-228h-77v228h-229z" />
    <glyph glyph-name="comma" unicode="," horiz-adv-x="229" 
d="M68 0v177h89v-174c0 -66 -38 -122 -98 -144l-9 38c37 29 53 56 56 103h-38z" />
    <glyph glyph-name="hyphen" unicode="-" horiz-adv-x="281" 
d="M53 240v90h176v-90h-176z" />
    <glyph glyph-name="period" unicode="." horiz-adv-x="229" 
d="M70 0v178h89v-178h-89z" />
    <glyph glyph-name="slash" unicode="/" horiz-adv-x="281" 
d="M20 -151l162 888h53l-162 -888h-53z" />
    <glyph glyph-name="zero" unicode="0" 
d="M37 372c0 245 23 378 171 378s172 -132 172 -378c0 -234 -14 -381 -170 -381c-150 0 -173 151 -173 381zM144 449v-160c0 -172 11 -229 65 -229c52 0 64 55 64 229v162c0 185 -14 231 -64 231c-52 0 -65 -50 -65 -233z" />
    <glyph glyph-name="one" unicode="1" 
d="M178 0v618c-46 -24 -70 -30 -132 -30v62c79 0 123 33 161 99h71v-749h-100z" />
    <glyph glyph-name="two" unicode="2" 
d="M134 498h-95v35c0 99 12 141 48 176c28 27 67 40 120 40c109 0 168 -66 168 -195c0 -106 -33 -150 -98 -226c-72 -84 -107 -132 -130 -180c-10 -19 -13 -28 -20 -55h242v-93h-330v25c0 76 49 181 143 309l23 32c54 73 64 103 64 195c0 56 -1 122 -65 122
c-26 0 -48 -15 -58 -41c-9 -24 -12 -51 -12 -120v-24z" />
    <glyph glyph-name="three" unicode="3" 
d="M148 561h-92c1 76 13 118 45 149c25 25 62 39 105 39c104 0 157 -65 157 -193c0 -104 -36 -140 -98 -170c31 -9 44 -14 60 -28c45 -37 57 -100 57 -170c0 -130 -60 -196 -176 -196c-55 0 -99 15 -124 40c-28 28 -41 67 -41 149v23h95v-26c0 -66 6 -119 70 -119
c56 0 69 48 69 142c0 77 -4 150 -113 150c-19 0 -30 -1 -57 -7v75c23 -4 32 -5 47 -5c105 0 111 67 111 141c0 94 -15 127 -59 127c-55 0 -56 -52 -56 -121z" />
    <glyph glyph-name="four" unicode="4" 
d="M216 268v313l-145 -313h145zM28 290l210 457h78v-479h85v-78h-85v-190h-100v190h-188v100z" />
    <glyph glyph-name="five" unicode="5" 
d="M57 196h93c0 -76 4 -137 62 -137c59 0 59 60 59 154v51c0 114 -15 150 -60 150c-39 0 -62 -43 -63 -119h-84v442h275v-82h-197v-225c29 46 61 66 105 66c31 0 58 -11 79 -31c39 -37 53 -99 53 -212c0 -142 -16 -262 -169 -262c-51 0 -90 14 -114 39
c-35 36 -40 82 -39 166z" />
    <glyph glyph-name="six" unicode="6" 
d="M150 280v-63c0 -101 11 -159 61 -159c56 0 61 52 61 176s-11 166 -58 166c-40 0 -64 -41 -64 -120zM365 573h-95c0 49 -4 109 -60 109c-47 0 -60 -46 -60 -139v-134c28 51 61 74 106 74c27 0 52 -10 70 -29c38 -38 53 -94 53 -192c0 -141 -18 -271 -169 -271
c-149 0 -165 115 -165 351c0 260 7 407 166 407c102 0 154 -42 154 -176z" />
    <glyph glyph-name="seven" unicode="7" 
d="M39 645v92h336v-26c0 -52 -36 -149 -55 -201c-62 -165 -76 -219 -89 -357c-5 -57 -6 -85 -7 -153h-108c2 67 3 151 38 276c27 98 52 148 83 209c44 85 60 119 66 160h-264z" />
    <glyph glyph-name="eight" unicode="8" 
d="M139 390c-38 13 -89 35 -89 172c0 126 53 187 162 187c103 0 156 -63 156 -187c0 -76 -13 -143 -95 -172c78 -24 104 -91 104 -191c0 -154 -45 -208 -174 -208c-118 0 -164 59 -164 212c0 87 18 164 100 187zM210 352c-50 0 -64 -41 -64 -144c0 -94 6 -150 64 -150
c55 0 61 55 61 151c0 106 -10 143 -61 143zM208 682c-45 0 -59 -40 -59 -127c0 -86 10 -127 59 -127c52 0 61 42 61 129c0 89 -12 125 -61 125z" />
    <glyph glyph-name="nine" unicode="9" 
d="M266 460v63c0 112 -6 159 -59 159s-63 -47 -63 -176c0 -126 12 -166 56 -166c42 0 66 41 66 120zM51 167h95c0 -49 4 -107 60 -107c52 0 60 50 60 137v134c-28 -51 -61 -74 -106 -74c-27 0 -52 10 -70 29c-38 38 -53 94 -53 192c0 141 18 271 169 271
c144 0 165 -107 165 -351c0 -260 -7 -407 -166 -407c-102 0 -154 42 -154 176z" />
    <glyph glyph-name="colon" unicode=":" horiz-adv-x="229" 
d="M70 403v157h89v-157h-89zM70 0v178h89v-178h-89z" />
    <glyph glyph-name="semicolon" unicode=";" horiz-adv-x="229" 
d="M70 404v156h89v-156h-89zM70 0v177h89v-174c0 -66 -38 -122 -98 -144l-9 38c37 29 53 56 56 103h-38z" />
    <glyph glyph-name="less" unicode="&#x3c;" horiz-adv-x="667" 
d="M601 150v-83l-534 224v70l534 224v-83l-431 -176z" />
    <glyph glyph-name="equal" unicode="=" horiz-adv-x="667" 
d="M66 404v77h535v-77h-535zM66 173v77h535v-77h-535z" />
    <glyph glyph-name="greater" unicode="&#x3e;" horiz-adv-x="667" 
d="M66 501v84l534 -225v-69l-534 -224v83l431 175z" />
    <glyph glyph-name="question" unicode="?" horiz-adv-x="375" 
d="M120 207v142h25c95 0 98 31 98 166c0 112 -10 164 -67 164c-41 0 -61 -34 -61 -111v-43h-76c0 70 0 131 35 175c22 27 60 46 108 46c129 0 150 -123 150 -225c0 -126 -9 -222 -154 -225v-89h-58zM103 0v141h88v-141h-88z" />
    <glyph glyph-name="at" unicode="@" horiz-adv-x="1015" 
d="M893 10l88 -1c-78 -156 -267 -219 -430 -219c-308 0 -494 166 -494 439c0 310 216 500 483 500c291 0 417 -211 417 -373c0 -100 -31 -182 -96 -257c-32 -36 -101 -101 -194 -101c-83 0 -93 47 -93 88c-48 -57 -103 -87 -152 -87c-103 0 -179 93 -179 221
c0 156 125 309 254 309c60 0 112 -32 147 -89l16 75h88l-78 -363c-5 -21 -6 -33 -6 -42c0 -17 15 -31 34 -31c27 0 63 23 93 51c59 55 94 138 94 220c0 176 -149 308 -350 308c-234 0 -406 -178 -406 -421c0 -237 156 -375 423 -375c126 0 266 39 341 148zM333 212
c0 -84 44 -141 108 -141c87 0 175 122 175 244c0 87 -45 142 -114 142c-87 0 -169 -120 -169 -245z" />
    <glyph glyph-name="A" unicode="A" horiz-adv-x="469" 
d="M292 218l-63 393l-57 -393h120zM42 0l129 737h113l143 -737h-100l-22 138h-145l-20 -138h-98z" />
    <glyph glyph-name="B" unicode="B" horiz-adv-x="469" 
d="M181 658v-240h53c61 0 88 39 88 114c0 88 -20 126 -77 126h-64zM181 339v-259h68c54 0 78 42 78 137c0 84 -28 122 -98 122h-48zM79 0v737h179c115 0 167 -68 167 -205c0 -118 -56 -143 -94 -157c42 -12 103 -34 103 -182c0 -121 -48 -193 -169 -193h-186z" />
    <glyph glyph-name="C" unicode="C" horiz-adv-x="479" 
d="M334 303h99c1 -135 0 -212 -56 -267c-33 -33 -73 -45 -126 -45c-175 0 -181 156 -181 282v128c0 152 7 247 56 298c30 31 70 50 125 50c53 0 93 -17 118 -42c45 -46 54 -113 53 -235h-96c6 161 -22 197 -76 197c-23 0 -37 -8 -51 -28c-16 -23 -22 -69 -22 -264
c0 -231 1 -307 80 -307c77 0 77 75 77 162v71z" />
    <glyph glyph-name="D" unicode="D" horiz-adv-x="469" 
d="M174 654v-569h58c83 0 85 63 85 184v177c0 155 -10 208 -101 208h-42zM72 0v737h159c171 0 193 -121 193 -355c0 -262 -22 -301 -56 -341c-19 -23 -63 -41 -111 -41h-185z" />
    <glyph glyph-name="E" unicode="E" horiz-adv-x="469" 
d="M89 0v737h332v-87h-230v-227h177v-89h-177v-245h247v-89h-349z" />
    <glyph glyph-name="F" unicode="F" horiz-adv-x="469" 
d="M98 0v737h320v-87h-218v-223h182v-89h-182v-338h-102z" />
    <glyph glyph-name="G" unicode="G" horiz-adv-x="475" 
d="M216 388h201v-397h-64c0 21 -9 74 -16 92c-25 -56 -71 -92 -129 -92c-31 0 -62 9 -90 37c-54 55 -59 151 -59 264c0 261 0 354 62 416c29 29 77 42 124 42c45 0 93 -14 123 -44c38 -39 42 -81 42 -144v-49h-92v31c0 42 -2 85 -26 109c-13 14 -31 22 -50 22
c-20 0 -36 -10 -45 -19c-29 -29 -31 -92 -31 -207v-158c0 -138 8 -218 74 -218c50 0 75 57 75 148v86h-99v81z" />
    <glyph glyph-name="H" unicode="H" horiz-adv-x="510" 
d="M88 0v737h102v-317h131v317h102v-737h-102v344h-131v-344h-102z" />
    <glyph glyph-name="I" unicode="I" horiz-adv-x="281" 
d="M90 0v737h102v-737h-102z" />
    <glyph glyph-name="J" unicode="J" horiz-adv-x="323" 
d="M233 737v-578c0 -114 -45 -168 -139 -168c-21 0 -35 2 -65 8v87c10 -5 30 -7 39 -7c62 0 64 49 63 97v561h102z" />
    <glyph glyph-name="K" unicode="K" horiz-adv-x="469" 
d="M72 0v737h102v-326l161 326h98l-131 -251l145 -486h-103l-105 373l-65 -126v-247h-102z" />
    <glyph glyph-name="L" unicode="L" horiz-adv-x="469" 
d="M91 0v737h102v-643h244v-94h-346z" />
    <glyph glyph-name="M" unicode="M" horiz-adv-x="656" 
d="M76 0v737h159l92 -541l95 541h158v-737h-90v693l-132 -693h-62l-131 701v-701h-89z" />
    <glyph glyph-name="N" unicode="N" horiz-adv-x="469" 
d="M63 0v737h112l143 -479v479h89v-737h-89l-166 554v-554h-89z" />
    <glyph glyph-name="O" unicode="O" horiz-adv-x="469" 
d="M58 387c0 196 9 365 179 365c47 0 82 -14 109 -41c61 -60 66 -149 66 -347c0 -184 -7 -271 -67 -331c-27 -28 -68 -42 -109 -42c-47 0 -84 14 -115 45c-60 61 -63 180 -63 351zM304 339v91c0 153 0 243 -68 243c-70 0 -70 -89 -70 -251v-97c0 -172 0 -254 72 -254
c64 0 66 82 66 268z" />
    <glyph glyph-name="P" unicode="P" horiz-adv-x="469" 
d="M221 665h-49v-264h51c73 0 95 30 95 128c0 105 -22 136 -97 136zM70 0v737h155c147 0 195 -52 195 -211c0 -184 -81 -195 -196 -195h-52v-331h-102z" />
    <glyph glyph-name="Q" unicode="Q" horiz-adv-x="469" 
d="M386 -72v-82h-45c-120 0 -147 22 -141 145c-34 6 -60 23 -75 39c-63 62 -66 181 -66 355c0 175 2 363 181 363c42 0 77 -13 104 -39c61 -61 67 -149 67 -346c0 -184 -5 -273 -65 -333c-24 -24 -58 -37 -70 -37c0 -63 9 -65 110 -65zM304 335v91c0 153 0 243 -69 243
s-69 -97 -69 -279v-97c0 -144 0 -226 72 -226c64 0 66 82 66 268z" />
    <glyph glyph-name="R" unicode="R" horiz-adv-x="469" 
d="M178 664v-257h40c61 0 89 42 89 134c0 84 -23 123 -72 123h-57zM76 0v737h172c112 0 163 -62 163 -199c0 -120 -45 -145 -124 -164c53 -11 122 -31 122 -157v-217h-100v233c0 62 -28 96 -78 96h-53v-329h-102z" />
    <glyph glyph-name="S" unicode="S" 
d="M37 241h95v-68c0 -67 28 -105 79 -105c45 0 70 33 70 93c0 53 -25 97 -97 170l-30 30c-60 61 -116 128 -116 236c0 90 66 151 168 151s159 -58 159 -163c0 -14 -1 -23 -3 -47h-92v35c0 65 -22 96 -68 96c-39 0 -64 -29 -64 -71c0 -70 45 -117 112 -183
c70 -72 130 -135 130 -241c0 -110 -68 -183 -172 -183c-113 0 -171 66 -171 196v54z" />
    <glyph glyph-name="T" unicode="T" horiz-adv-x="469" 
d="M30 656v81h410v-81h-154v-656h-102v656h-154z" />
    <glyph glyph-name="U" unicode="U" horiz-adv-x="469" 
d="M65 737h102v-553c0 -66 17 -109 70 -109c50 0 63 44 65 109v553h102v-560c0 -127 -58 -186 -169 -186c-112 0 -170 60 -170 186v560z" />
    <glyph glyph-name="V" unicode="V" horiz-adv-x="469" 
d="M189 0l-146 737h101l95 -542l87 542h101l-137 -737h-101z" />
    <glyph glyph-name="W" unicode="W" horiz-adv-x="698" 
d="M169 0l-139 737h99l87 -566l86 566h92l98 -575l79 575h97l-123 -737h-98l-97 560l-83 -560h-98z" />
    <glyph glyph-name="X" unicode="X" horiz-adv-x="469" 
d="M175 392l-139 345h107l92 -244l87 244h103l-136 -333l157 -404h-108l-111 289l-98 -289h-106z" />
    <glyph glyph-name="Y" unicode="Y" horiz-adv-x="469" 
d="M183 293l-147 444h100l98 -317l99 317h101l-150 -438v-299h-101v293z" />
    <glyph glyph-name="Z" unicode="Z" 
d="M63 651v86h320v-123l-270 -526h270v-88h-347v150l259 501h-232z" />
    <glyph glyph-name="bracketleft" unicode="[" horiz-adv-x="281" 
d="M53 -136v873h205v-43h-114v-787h111v-43h-202z" />
    <glyph glyph-name="backslash" unicode="\" horiz-adv-x="281" 
d="M208 -151l-162 888h53l162 -888h-53z" />
    <glyph glyph-name="bracketright" unicode="]" horiz-adv-x="281" 
d="M24 694v43h203v-874h-203v43h113v788h-113z" />
    <glyph glyph-name="asciicircum" unicode="^" horiz-adv-x="469" 
d="M234 638l-117 -292h-91l173 391h71l173 -391h-89z" />
    <glyph glyph-name="underscore" unicode="_" horiz-adv-x="556" 
d="M569 -125h-582v50h582v-50z" />
    <glyph glyph-name="quoteleft" unicode="&#x2018;" horiz-adv-x="229" 
d="M158 608v-177h-87v167c0 72 33 122 96 154l11 -42c-38 -28 -53 -56 -55 -102h35z" />
    <glyph glyph-name="a" unicode="a" 
d="M258 183v81c-91 -16 -121 -31 -121 -116c0 -60 16 -89 49 -89c40 0 72 55 72 124zM144 384l-87 11c2 116 54 175 148 175c98 0 143 -49 143 -151v-265c0 -38 6 -78 16 -112c5 -18 8 -25 19 -42h-91c-14 23 -19 49 -26 81c-35 -61 -68 -87 -113 -87
c-73 0 -109 53 -109 159c0 57 14 98 42 126c22 22 44 30 101 38c35 4 44 6 72 14v97c0 44 -21 70 -55 70c-43 0 -59 -29 -60 -114z" />
    <glyph glyph-name="b" unicode="b" 
d="M272 209v132c0 123 -10 160 -42 160c-40 0 -77 -50 -77 -208c0 -151 25 -226 74 -226c44 0 45 63 45 142zM64 0v737h90v-251c28 58 55 80 100 80c26 0 49 -10 68 -30c33 -35 46 -97 46 -265c0 -163 -14 -204 -32 -229c-18 -26 -40 -47 -76 -47c-52 0 -90 35 -114 107
c-6 -28 -8 -61 -9 -102h-73z" />
    <glyph glyph-name="c" unicode="c" 
d="M364 351h-88c0 63 -1 150 -60 150c-60 0 -64 -71 -64 -174v-113c0 -68 1 -152 64 -152c66 0 66 90 66 167h87c0 -91 0 -238 -152 -238c-163 0 -163 137 -163 273c0 179 7 307 162 307c146 0 148 -120 148 -220z" />
    <glyph glyph-name="d" unicode="d" 
d="M193 502c-38 0 -42 -58 -42 -135v-142c0 -87 4 -157 47 -157c11 0 22 5 35 18c35 35 37 119 37 175c0 113 0 180 -42 222c-8 8 -21 19 -35 19zM268 489v248h91v-737h-71c0 34 -5 76 -10 96c-18 -47 -51 -102 -109 -102c-34 0 -51 14 -65 28c-48 48 -51 158 -51 242
c0 108 2 231 50 279c13 13 38 27 65 27c39 0 77 -24 100 -81z" />
    <glyph glyph-name="e" unicode="e" 
d="M150 346h120v22c0 62 -2 142 -60 142c-55 0 -60 -78 -60 -145v-19zM294 191h82c-2 -53 -6 -75 -19 -106c-29 -69 -84 -94 -139 -94c-39 0 -74 15 -101 41c-44 45 -61 111 -61 248c0 162 20 231 77 269c22 15 47 22 75 22c41 0 75 -13 101 -39c39 -39 52 -88 53 -209v-43
h-213v-32c0 -90 4 -179 75 -179c46 0 70 41 70 122z" />
    <glyph glyph-name="f" unicode="f" horiz-adv-x="323" 
d="M28 560h84v23c0 69 10 102 40 131c24 22 53 33 90 33c22 0 32 -2 58 -10v-71c-21 8 -29 10 -44 10c-23 0 -41 -11 -48 -29c-7 -16 -7 -32 -7 -87h99v-61h-98v-499h-90v499h-84v61z" />
    <glyph glyph-name="g" unicode="g" 
d="M150 361v-107c0 -126 1 -202 47 -202c11 0 23 6 33 16c39 39 39 121 39 227c0 70 -4 144 -36 180c-15 17 -25 22 -43 22c-34 0 -40 -52 -40 -136zM47 -44h87c5 -23 24 -35 59 -35c77 0 77 65 77 93c0 15 -1 32 -1 51c-27 -42 -54 -67 -103 -67c-34 0 -55 16 -70 30
c-41 42 -45 131 -45 232c0 146 4 230 51 277c16 16 40 28 69 28c42 0 77 -31 97 -81v76h91v-518c0 -66 0 -184 -172 -184c-99 0 -140 46 -140 98z" />
    <glyph glyph-name="h" unicode="h" 
d="M66 0v737h91v-270c16 35 46 101 110 101c57 0 93 -55 93 -159v-409h-90v388c0 70 -11 99 -39 99c-43 0 -74 -64 -74 -151v-336h-91z" />
    <glyph glyph-name="i" unicode="i" horiz-adv-x="229" 
d="M70 633v108h90v-108h-90zM69 0v560h91v-560h-91z" />
    <glyph glyph-name="j" unicode="j" horiz-adv-x="281" 
d="M100 633v108h90v-108h-90zM100 31v529h91v-543c0 -107 -41 -159 -126 -159c-16 0 -24 1 -45 6v81c15 -3 19 -3 28 -3c41 0 52 19 52 89z" />
    <glyph glyph-name="k" unicode="k" 
d="M71 0v737h90v-407l143 230h95l-132 -191l129 -369h-88l-100 282l-47 -67v-215h-90z" />
    <glyph glyph-name="l" unicode="l" horiz-adv-x="229" 
d="M69 0v737h91v-737h-91z" />
    <glyph glyph-name="m" unicode="m" horiz-adv-x="604" 
d="M57 0v560h81v-112c41 87 71 117 119 117c46 0 77 -35 91 -101c33 72 63 101 109 101c61 0 97 -60 97 -161v-404h-91v412c0 47 -16 76 -41 76c-38 0 -71 -56 -71 -121v-367h-91v409c0 53 -13 78 -42 78c-39 0 -70 -61 -70 -136v-351h-91z" />
    <glyph glyph-name="n" unicode="n" 
d="M145 560v-122c23 58 49 127 118 127c64 0 96 -60 96 -183v-382h-90v395c0 63 -14 95 -41 95c-42 0 -74 -77 -74 -179v-311h-91v560h82z" />
    <glyph glyph-name="o" unicode="o" 
d="M54 273c0 122 6 206 60 259c26 26 56 38 94 38c43 0 71 -15 98 -41c50 -49 57 -136 57 -240c0 -80 -4 -202 -60 -258c-15 -15 -44 -40 -95 -40c-47 0 -76 20 -99 42c-54 55 -55 160 -55 240zM264 289c0 114 -2 211 -54 211c-56 0 -57 -97 -57 -207c0 -142 1 -231 55 -231
s56 91 56 227z" />
    <glyph glyph-name="p" unicode="p" 
d="M273 208v131c0 106 -7 152 -45 152c-14 0 -31 -7 -46 -28c-16 -22 -28 -93 -28 -183c0 -41 3 -101 7 -127c8 -50 39 -91 68 -91c42 0 44 63 44 146zM156 68v-210h-91v702h74c0 -25 0 -59 9 -105c28 75 62 110 107 110c26 0 47 -10 65 -28c36 -35 49 -94 49 -245
c0 -73 -2 -192 -29 -241c-16 -30 -39 -56 -85 -56c-45 0 -71 19 -99 73z" />
    <glyph glyph-name="q" unicode="q" 
d="M189 495c-40 0 -43 -62 -43 -167v-80c0 -121 1 -189 44 -189c9 0 24 8 34 18c36 36 43 113 43 183c0 91 -6 180 -43 217c-13 13 -22 18 -35 18zM265 -142v215c-23 -50 -51 -79 -98 -79c-28 0 -50 12 -65 27c-46 46 -54 128 -54 243c0 109 5 227 49 271c23 22 40 30 62 30
c48 0 86 -37 114 -108c6 26 9 85 9 103h74v-702h-91z" />
    <glyph glyph-name="r" unicode="r" horiz-adv-x="323" 
d="M155 560v-146c9 17 16 31 21 39c55 109 70 113 129 113v-105c-11 2 -17 2 -24 2c-53 0 -98 -43 -125 -122v-341h-91v560h90z" />
    <glyph glyph-name="s" unicode="s" horiz-adv-x="375" 
d="M46 180l83 -1c-2 -47 -2 -122 62 -122c36 0 58 26 58 68c0 44 -26 71 -89 125c-44 37 -109 93 -109 173c0 87 54 148 132 148c57 0 98 -26 118 -75c10 -24 13 -48 13 -105h-77c1 58 -1 77 -17 95c-11 13 -24 17 -39 17c-29 0 -48 -25 -48 -62c0 -47 25 -71 76 -115
c15 -13 38 -33 68 -61c41 -43 58 -79 58 -122c0 -91 -60 -152 -148 -152c-60 0 -105 29 -127 83c-11 26 -14 50 -14 106z" />
    <glyph glyph-name="t" unicode="t" horiz-adv-x="323" 
d="M118 560v166h90v-166h81v-61h-83v-350c0 -71 13 -116 44 -149h-99c-25 33 -35 71 -35 137v362h-82v61h84z" />
    <glyph glyph-name="u" unicode="u" 
d="M59 142v418h90v-413c0 -53 12 -76 41 -76c40 0 72 63 72 138v351h91v-560h-77c-1 31 -1 74 -8 98c-36 -75 -67 -103 -113 -103c-61 0 -96 54 -96 147z" />
    <glyph glyph-name="v" unicode="v" 
d="M171 -5l-136 565h88l84 -394l87 394h88l-138 -565h-73z" />
    <glyph glyph-name="w" unicode="w" horiz-adv-x="604" 
d="M147 -4l-124 564h83l75 -394l88 394h68l86 -395l76 395h82l-125 -564h-69l-85 389l-85 -389h-70z" />
    <glyph glyph-name="x" unicode="x" 
d="M149 299l-116 261h100l69 -169l70 169h96l-123 -262l147 -298h-98l-93 213l-80 -213h-96z" />
    <glyph glyph-name="y" unicode="y" 
d="M183 86l-146 474h92l89 -318l73 318h88l-121 -515c-16 -65 -28 -117 -62 -150c-23 -24 -56 -37 -92 -37c-17 0 -27 2 -49 8v74c17 -4 24 -5 34 -5c20 0 35 6 48 20c20 21 26 43 42 115z" />
    <glyph glyph-name="z" unicode="z" 
d="M74 477v83h284v-120l-216 -357h223v-83h-303v115l219 362h-207z" />
    <glyph glyph-name="braceleft" unicode="{" horiz-adv-x="334" 
d="M34 263v75c23 0 33 3 47 10c53 27 54 81 54 167c1 96 1 144 34 184c27 33 57 42 148 42v-73c-88 0 -99 -15 -99 -93v-68c0 -142 -35 -177 -103 -207c68 -30 103 -65 103 -206v-68c0 -79 11 -94 99 -94v-72c-91 0 -121 8 -148 41c-33 40 -33 88 -34 184
c0 87 -1 140 -54 167c-14 8 -24 11 -47 11z" />
    <glyph glyph-name="bar" unicode="|" horiz-adv-x="546" 
d="M234 -250v1000h77v-1000h-77z" />
    <glyph glyph-name="braceright" unicode="}" horiz-adv-x="334" 
d="M300 338v-75c-23 0 -33 -3 -47 -11c-53 -27 -54 -80 -54 -167c-1 -96 -1 -144 -34 -184c-27 -33 -57 -41 -148 -41v72c88 0 99 15 99 94v68c0 141 35 176 103 206c-68 30 -103 65 -103 207v68c0 78 -11 93 -99 93v73c91 0 121 -9 148 -42c33 -40 33 -88 34 -184
c0 -86 1 -140 54 -167c14 -7 24 -10 47 -10z" />
    <glyph glyph-name="asciitilde" unicode="~" horiz-adv-x="656" 
d="M594 421v-83c-49 -42 -98 -64 -143 -64c-39 0 -66 9 -150 49c-45 22 -72 30 -95 30c-44 0 -91 -22 -144 -68v82c49 41 101 63 148 63c36 0 66 -10 143 -47c46 -23 75 -32 99 -32c62 0 113 44 142 70z" />
    <glyph glyph-name="exclamdown" unicode="&#xa1;" horiz-adv-x="229" 
d="M69 442v163h90v-163h-90zM178 -133h-127c11 54 15 75 20 122c15 132 17 258 18 356h49c2 -121 4 -164 10 -240c9 -129 20 -187 30 -238z" />
    <glyph glyph-name="cent" unicode="&#xa2;" 
d="M152 186l115 267c-8 28 -23 48 -51 48c-60 0 -64 -71 -64 -174v-141zM282 229h87c0 -91 0 -238 -152 -238c-43 0 -75 10 -97 26l-41 -96l-34 16l47 109c-38 53 -38 136 -38 218c0 179 7 307 162 307c41 0 71 -10 90 -26l45 106l35 -12l-52 -122c30 -43 31 -108 31 -166
h-86v37l-118 -274c7 -30 23 -52 55 -52c66 0 66 90 66 167z" />
    <glyph glyph-name="sterling" unicode="&#xa3;" 
d="M28 399h70c-4 46 -5 96 -5 143c0 110 32 207 143 207c52 0 100 -33 121 -82c9 -23 12 -47 13 -99h-86c0 84 -12 109 -48 109c-34 0 -47 -29 -47 -101c0 -59 5 -118 8 -177h124v-69h-122c0 -67 0 -144 -22 -206c31 -9 67 -36 97 -36c50 0 50 58 50 104h73
c0 -78 -7 -126 -28 -155c-22 -31 -56 -45 -91 -45c-46 0 -86 14 -135 49c-30 -37 -48 -50 -70 -50c-28 0 -46 20 -46 50c0 40 38 81 82 88c0 46 1 98 -7 200h-74v70z" />
    <glyph glyph-name="fraction" unicode="&#x2044;" horiz-adv-x="177" 
d="M-136 -19l392 738h66l-392 -738h-66z" />
    <glyph glyph-name="yen" unicode="&#xa5;" horiz-adv-x="469" 
d="M235 426l99 311h101l-127 -329h127v-72h-155v-88h155v-72h-155v-176h-91v176h-153v72h153v88h-153v72h125l-124 329h100z" />
    <glyph glyph-name="florin" unicode="&#x192;" horiz-adv-x="556" 
d="M337 470l-93 -534c-16 -91 -52 -127 -128 -127c-28 0 -68 5 -108 13l17 76c35 -8 56 -11 75 -11c18 0 37 8 45 20c7 10 11 26 16 54l87 509h-98l11 68h99l11 66c12 65 21 84 36 102c24 30 58 43 107 43c33 0 54 -5 101 -19l-17 -74c-41 9 -55 11 -78 11
c-47 0 -53 -35 -61 -78l-10 -51h100l-12 -68h-100z" />
    <glyph glyph-name="section" unicode="&#xa7;" horiz-adv-x="375" 
d="M169 417l-24 23c-24 -25 -37 -53 -37 -78c0 -50 25 -91 102 -167l23 -23c25 24 38 52 38 83c0 46 -27 90 -102 162zM50 22h78c1 -67 20 -96 61 -96c32 0 54 24 54 59c0 41 -19 71 -89 136c-51 48 -127 119 -127 217c0 56 19 96 72 153c-34 42 -49 80 -49 121
c0 83 54 138 136 138c92 0 138 -54 140 -163h-77c0 35 -2 97 -59 97c-31 0 -55 -24 -55 -56c0 -47 27 -77 90 -138c69 -66 125 -126 125 -219c0 -56 -22 -103 -72 -149c39 -51 50 -78 50 -128c0 -81 -55 -134 -140 -134c-58 0 -101 29 -123 82c-10 24 -13 40 -15 80z" />
    <glyph glyph-name="currency" unicode="&#xa4;" horiz-adv-x="688" 
d="M151 570l63 -62c46 30 82 41 130 41s84 -11 130 -42l63 63l51 -52l-62 -62c29 -45 41 -83 41 -130c0 -49 -12 -86 -42 -131l63 -62l-51 -51l-63 62c-45 -31 -81 -42 -130 -42c-68 0 -108 27 -130 42l-62 -62l-52 51l63 62c-30 45 -42 82 -42 131c0 48 12 85 42 130
l-63 62zM194 326c0 -84 67 -151 150 -151s150 67 150 151c0 83 -67 150 -150 150s-150 -67 -150 -150z" />
    <glyph glyph-name="quotesingle" unicode="'" horiz-adv-x="229" 
d="M140 484h-50l-20 133v120h90v-120z" />
    <glyph glyph-name="quotedblleft" unicode="&#x201c;" horiz-adv-x="375" 
d="M139 608v-177h-87v167c0 72 33 122 96 154l11 -42c-38 -28 -53 -56 -55 -102h35zM323 608v-177h-87v167c0 72 33 122 96 154l11 -42c-38 -28 -53 -56 -55 -102h35z" />
    <glyph glyph-name="guillemotleft" unicode="&#xab;" 
d="M17 306l123 254h82l-107 -255l108 -254h-83zM211 305l109 255h81l-93 -255l93 -254h-80z" />
    <glyph glyph-name="guilsinglleft" unicode="&#x2039;" horiz-adv-x="229" 
d="M19 305l109 255h81l-93 -255l94 -254h-81z" />
    <glyph glyph-name="guilsinglright" unicode="&#x203a;" horiz-adv-x="229" 
d="M112 305l-93 255h81l109 -254l-110 -255h-80z" />
    <glyph glyph-name="fi" unicode="&#xfb01;" 
d="M26 560h47c-1 56 2 82 12 107c20 46 69 80 134 80c89 0 139 -41 146 -119h-89c-6 31 -26 49 -54 49c-59 0 -61 -50 -60 -117h75v-61h-75v-499h-91v499h-45v61zM273 0v560h91v-560h-91z" />
    <glyph glyph-name="fl" unicode="&#xfb02;" 
d="M25 560h47v25c0 72 17 98 39 123c29 27 64 39 112 39c21 0 42 -4 63 -11c11 3 15 5 25 10h53v-746h-91v609c0 48 -18 68 -55 68s-58 -28 -58 -78v-39h75v-61h-74v-499h-91v499h-45v61z" />
    <glyph glyph-name="endash" unicode="&#x2013;" horiz-adv-x="500" 
d="M-8 222v63h516v-63h-516z" />
    <glyph glyph-name="dagger" unicode="&#x2020;" horiz-adv-x="375" 
d="M162 491l-18 246h89l-17 -246l134 17v-88l-134 16l17 -571h-88l17 571l-136 -15v88z" />
    <glyph glyph-name="daggerdbl" unicode="&#x2021;" horiz-adv-x="375" 
d="M160 516l-17 221h88l-18 -220l124 17v-88l-124 17l10 -164l-10 -172l124 16v-88l-122 18l16 -221h-88l18 221l-122 -19v89l122 -16l-10 171l10 164l-122 -17v88z" />
    <glyph glyph-name="periodcentered" unicode="&#xb7;" horiz-adv-x="229" 
d="M70 289v171h89v-171h-89z" />
    <glyph glyph-name="paragraph" unicode="&#xb6;" horiz-adv-x="538" 
d="M279 -177h-80v510c-122 7 -197 84 -197 202c0 148 104 202 246 202h293v-84h-70v-830h-83v830h-109v-830z" />
    <glyph glyph-name="bullet" unicode="&#x2022;" horiz-adv-x="350" 
d="M51 350c0 69 55 124 123 124c69 0 124 -55 124 -124c0 -68 -55 -123 -124 -123c-68 0 -123 55 -123 123z" />
    <glyph glyph-name="quotesinglbase" unicode="&#x201a;" horiz-adv-x="229" 
d="M70 0v178h88v-175c0 -65 -32 -113 -99 -147l-9 42c55 38 55 84 55 102h-35z" />
    <glyph glyph-name="quotedblbase" unicode="&#x201e;" horiz-adv-x="375" 
d="M236 0v178h88v-175c0 -65 -32 -113 -99 -147l-9 42c55 38 55 84 55 102h-35zM51 0v178h88v-175c0 -65 -32 -113 -99 -147l-9 42c55 38 55 84 55 102h-35z" />
    <glyph glyph-name="quotedblright" unicode="&#x201d;" horiz-adv-x="375" 
d="M236 560v177h87v-167c0 -72 -33 -122 -96 -154l-11 42c38 28 53 56 55 102h-35zM52 560v177h87v-167c0 -72 -33 -122 -96 -154l-11 42c38 28 53 56 55 102h-35z" />
    <glyph glyph-name="guillemotright" unicode="&#xbb;" 
d="M109 305l-92 255h81l110 -255l-109 -254h-81zM303 305l-108 255h82l123 -256l-122 -253h-82z" />
    <glyph glyph-name="ellipsis" unicode="&#x2026;" horiz-adv-x="1000" 
d="M123 0v178h89v-178h-89zM456 0v178h89v-178h-89zM789 0v178h89v-178h-89z" />
    <glyph glyph-name="perthousand" unicode="&#x2030;" horiz-adv-x="905" 
d="M156 354c-87 0 -102 32 -102 184c0 149 15 179 102 179c86 0 98 -29 98 -175c0 -155 -12 -188 -98 -188zM155 407c30 0 34 25 34 131c0 103 -5 127 -34 127c-32 0 -35 -25 -35 -127c0 -106 3 -131 35 -131zM492 355c86 0 98 -29 98 -175c0 -155 -12 -188 -98 -188
c-87 0 -102 32 -102 184c0 149 15 179 102 179zM491 45c30 0 34 25 34 131c0 103 -5 127 -34 127c-32 0 -35 -25 -35 -127c0 -106 3 -131 35 -131zM753 355c86 0 98 -29 98 -175c0 -155 -12 -188 -98 -188c-87 0 -102 32 -102 184c0 149 15 179 102 179zM752 45
c30 0 34 25 34 131c0 103 -5 127 -34 127c-32 0 -35 -25 -35 -127c0 -106 3 -131 35 -131zM91 -21l389 738h66l-389 -738h-66z" />
    <glyph glyph-name="questiondown" unicode="&#xbf;" horiz-adv-x="382" 
d="M257 399v-142h-25c-95 0 -98 -31 -98 -166c0 -112 10 -164 67 -164c41 0 61 34 61 111v43h76c0 -70 0 -131 -35 -175c-22 -27 -60 -46 -108 -46c-129 0 -150 123 -150 225c0 126 9 222 154 225v89h58zM274 605v-141h-88v141h88z" />
    <glyph glyph-name="grave" unicode="`" horiz-adv-x="333" 
d="M156 742l66 -137h-71l-112 137h117z" />
    <glyph glyph-name="acute" unicode="&#xb4;" horiz-adv-x="333" 
d="M177 605h-73l65 137h115z" />
    <glyph glyph-name="circumflex" unicode="&#x2c6;" horiz-adv-x="333" 
d="M221 605l-53 83l-55 -83h-101l106 137h93l110 -137h-100z" />
    <glyph glyph-name="tilde" unicode="&#x2dc;" horiz-adv-x="333" 
d="M68 617h-65c-2 74 47 112 100 112c19 0 45 -8 74 -23l14 -7c15 -8 28 -11 40 -11c22 0 31 11 35 42h64c-2 -70 -37 -111 -94 -111c-23 0 -45 7 -74 23l-18 9c-17 10 -28 13 -40 13c-20 0 -37 -16 -36 -47z" />
    <glyph glyph-name="macron" unicode="&#xaf;" horiz-adv-x="333" 
d="M319 621h-305v72h305v-72z" />
    <glyph glyph-name="breve" unicode="&#x2d8;" horiz-adv-x="333" 
d="M22 736h61c5 -22 13 -39 27 -49c14 -11 33 -16 57 -16c49 0 75 20 84 65h60c-10 -81 -60 -126 -143 -126c-85 0 -136 44 -146 126z" />
    <glyph glyph-name="dotaccent" unicode="&#x2d9;" horiz-adv-x="333" 
d="M221 605h-109v109h109v-109z" />
    <glyph glyph-name="dieresis" unicode="&#xa8;" horiz-adv-x="333" 
d="M121 605h-92v100h92v-100zM304 605h-92v100h92v-100z" />
    <glyph glyph-name="ring" unicode="&#x2da;" horiz-adv-x="333" 
d="M167 596c-49 0 -88 40 -88 91c0 49 40 88 90 88c47 0 86 -41 86 -90s-39 -89 -88 -89zM167 633c29 0 52 24 52 53s-23 53 -52 53c-28 0 -52 -24 -52 -52c0 -30 23 -54 52 -54z" />
    <glyph glyph-name="cedilla" unicode="&#xb8;" horiz-adv-x="333" 
d="M53 -200l5 57c18 -1 31 -2 45 -2c52 0 79 12 79 37c0 32 -49 32 -76 32l25 87h66l-17 -52c53 -7 84 -34 84 -74c0 -54 -57 -91 -141 -91c-26 0 -51 2 -70 6z" />
    <glyph glyph-name="hungarumlaut" unicode="&#x2dd;" horiz-adv-x="333" 
d="M99 605h-70l59 137h114zM272 605h-74l62 137h113z" />
    <glyph glyph-name="ogonek" unicode="&#x2db;" horiz-adv-x="333" 
d="M303 -121v-57c-35 -18 -78 -30 -107 -30c-64 0 -107 43 -107 108c0 29 6 63 20 111h61c-12 -27 -19 -56 -19 -78c0 -46 28 -76 73 -76c22 0 51 8 79 22z" />
    <glyph glyph-name="caron" unicode="&#x2c7;" horiz-adv-x="333" 
d="M120 742l55 -83l54 83h100l-110 -137h-94l-105 137h100z" />
    <glyph glyph-name="emdash" unicode="&#x2014;" horiz-adv-x="1000" 
d="M-9 222v63h1018v-63h-1018z" />
    <glyph glyph-name="AE" unicode="&#xc6;" horiz-adv-x="656" 
d="M166 218h120v431h-34zM27 0l160 737h424v-88h-224v-225h176v-89h-176v-247h238v-88h-340v135h-136l-27 -135h-95z" />
    <glyph glyph-name="ordfeminine" unicode="&#xaa;" horiz-adv-x="260" 
d="M159 499v57c-77 -5 -77 -45 -77 -73c0 -39 9 -56 31 -56c24 0 46 34 46 72zM87 632l-55 8c2 74 34 110 98 110c58 0 85 -31 85 -97v-171c0 -33 8 -68 21 -92h-56c-7 14 -13 33 -16 52c-21 -39 -43 -56 -73 -56c-44 0 -68 34 -68 95c0 99 55 105 92 109c18 2 32 4 44 9v66
c0 24 -14 40 -35 40c-35 0 -37 -38 -37 -73z" />
    <glyph glyph-name="Lslash" unicode="&#x141;" horiz-adv-x="469" 
d="M192 360v-266h245v-94h-346v284l-63 -54v104l63 53v350h101v-274l130 112v-104z" />
    <glyph glyph-name="Oslash" unicode="&#xd8;" horiz-adv-x="469" 
d="M166 394v-141l133 332c-7 57 -24 88 -64 88c-69 0 -69 -97 -69 -279zM125 33l-23 -57l-40 14l33 84c-35 66 -37 172 -37 313c0 196 9 365 179 365c47 0 82 -14 111 -43l21 53l41 -12l-33 -82c32 -60 35 -148 35 -304c0 -184 -7 -271 -67 -331c-27 -28 -68 -42 -109 -42
c-45 0 -81 13 -111 42zM304 339v144h-1l-131 -332c7 -52 24 -80 66 -80c64 0 66 82 66 268z" />
    <glyph glyph-name="OE" unicode="&#x152;" horiz-adv-x="698" 
d="M235 669c-70 0 -76 -91 -76 -218v-129c0 -169 3 -250 75 -250c20 0 37 8 55 27c46 45 46 147 46 242v64c0 120 -3 197 -48 242c-12 12 -26 22 -52 22zM334 0v76c-27 -58 -66 -80 -116 -80c-39 0 -72 15 -92 35c-71 71 -73 176 -73 329c0 156 0 282 65 347
c24 24 55 38 99 38c58 0 97 -30 118 -85v77h323v-87h-224v-225h177v-89h-177v-247h235v-89h-335z" />
    <glyph glyph-name="ordmasculine" unicode="&#xba;" horiz-adv-x="260" 
d="M130 387c-78 0 -98 69 -98 178c0 115 11 186 96 186c86 0 98 -71 98 -185c0 -109 -19 -179 -96 -179zM129 432c31 0 35 35 35 118v37c0 89 -7 121 -35 121c-27 0 -34 -34 -34 -122v-36c0 -86 6 -118 34 -118z" />
    <glyph glyph-name="ae" unicode="&#xe6;" horiz-adv-x="604" 
d="M348 349h117v29c0 101 -16 138 -58 138c-59 0 -59 -67 -59 -128v-39zM133 382l-86 13c0 60 12 177 139 177c53 0 86 -18 111 -61c29 43 62 61 111 61c41 0 71 -12 98 -38c39 -40 52 -89 53 -206v-43h-211v-36c-4 -119 8 -183 70 -183c47 0 74 44 74 121v4h79
c-1 -42 -4 -114 -50 -160c-27 -27 -62 -40 -106 -40c-75 0 -116 44 -138 111c-26 -75 -69 -111 -130 -111c-68 0 -113 65 -113 165c0 160 117 168 224 175v32c0 93 -2 108 -20 127c-13 13 -24 17 -40 17c-25 0 -47 -15 -57 -39c-8 -20 -8 -52 -8 -86zM258 195v74
c-92 -12 -128 -24 -128 -117c0 -57 20 -91 53 -91c47 0 75 50 75 134z" />
    <glyph glyph-name="dotlessi" unicode="&#x131;" horiz-adv-x="229" 
d="M69 0v560h91v-560h-91z" />
    <glyph glyph-name="lslash" unicode="&#x142;" horiz-adv-x="229" 
d="M69 391v346h91v-283l51 39v-87l-51 -41v-365h-91v303l-51 -41v87z" />
    <glyph glyph-name="oslash" unicode="&#xf8;" 
d="M153 197l103 239c-6 40 -20 65 -46 65c-57 0 -58 -97 -58 -207c0 -36 0 -69 1 -97zM299 535l22 53l33 -18l-28 -66c31 -52 36 -127 36 -215c0 -80 -3 -202 -59 -258c-15 -15 -44 -40 -95 -40c-40 0 -68 15 -88 33l-22 -50l-33 18l27 63c-36 59 -37 148 -37 218
c0 122 5 206 59 259c26 26 56 38 94 38c40 0 67 -13 91 -35zM264 358l-103 -238c7 -37 21 -57 47 -57c55 0 57 91 57 227c0 24 0 47 -1 68z" />
    <glyph glyph-name="oe" unicode="&#x153;" horiz-adv-x="604" 
d="M360 347h115v37c0 59 0 131 -59 131c-56 0 -56 -64 -56 -131v-37zM504 190h72c0 -76 -9 -122 -45 -157c-17 -17 -52 -42 -100 -42c-45 0 -88 19 -113 66c-19 -40 -50 -66 -110 -66c-37 0 -66 10 -90 34c-54 54 -64 176 -64 272c0 92 12 188 61 237c27 26 58 37 91 37
c44 0 84 -20 105 -64c23 48 70 64 111 64c38 0 69 -13 89 -33c54 -54 57 -124 58 -253h-209v-61c0 -93 7 -163 71 -163c52 0 73 55 73 129zM152 332v-65c0 -154 7 -215 62 -215c59 0 59 78 59 137v162c0 86 -5 157 -59 157c-61 0 -62 -65 -62 -176z" />
    <glyph glyph-name="germandbls" unicode="&#xdf;" 
d="M207 434v79c32 2 47 27 47 82c0 57 -17 84 -50 84c-32 0 -46 -23 -46 -72v-607h-90v595c0 39 3 62 11 82c20 47 68 71 122 71c99 0 148 -53 148 -161c0 -64 -17 -98 -61 -117c68 -41 84 -79 84 -217c0 -176 -39 -255 -125 -255c-12 0 -22 3 -41 11v78c11 -3 15 -4 23 -4
c32 0 48 44 48 132c0 132 -6 181 -27 202c-11 11 -23 16 -43 17z" />
    <glyph glyph-name="divide" unicode="&#xf7;" horiz-adv-x="668" 
d="M284 530c0 25 22 46 48 46s48 -21 48 -48c0 -26 -21 -48 -48 -48c-26 0 -48 22 -48 50zM284 123c0 26 22 48 49 48c26 0 48 -21 48 -48c0 -26 -22 -48 -48 -48c-27 0 -49 21 -49 48zM66 289v73h535v-73h-535z" />
    <glyph glyph-name="threequarters" unicode="&#xbe;" horiz-adv-x="619" 
d="M465 116v190l-63 -190h63zM346 141l89 207h94v-222h38v-48h-39v-78h-64v78h-118v63zM79 -19l391 738h66l-390 -738h-67zM111 619h-66c0 31 6 52 20 66c15 15 38 21 71 21c72 0 101 -26 101 -90c0 -50 -12 -71 -51 -83c43 -9 53 -25 53 -83c0 -77 -25 -102 -101 -102
c-96 0 -97 44 -97 94h68c0 -36 6 -46 29 -46c24 0 33 14 33 51c0 54 -8 62 -55 63v51c41 1 52 11 52 49c0 34 -8 48 -29 48c-20 0 -27 -9 -28 -39z" />
    <glyph glyph-name="onequarter" unicode="&#xbc;" horiz-adv-x="615" 
d="M446 111v190l-63 -190h63zM327 141l89 207h94v-222h38v-48h-39v-78h-65v78h-117v63zM50 -19l390 738h67l-389 -738h-68zM51 587v60c34 19 45 28 60 53h64v-348h-69v273c-23 -18 -35 -26 -55 -38z" />
    <glyph glyph-name="onesuperior" unicode="&#xb9;" horiz-adv-x="281" 
d="M58 587v60c34 19 45 28 60 53h64v-348h-69v273c-23 -18 -35 -26 -55 -38z" />
    <glyph glyph-name="multiply" unicode="&#xd7;" horiz-adv-x="668" 
d="M280 325l-194 194l54 54l194 -194l194 194l55 -54l-194 -194l192 -193l-54 -54l-192 193l-194 -193l-54 54z" />
    <glyph glyph-name="registered" unicode="&#xae;" horiz-adv-x="738" 
d="M271 178h-64v396h137c60 0 80 -2 107 -13c35 -15 62 -54 62 -91c0 -64 -46 -110 -113 -115c19 -8 26 -13 38 -26c16 -17 36 -44 54 -74l48 -77h-78l-35 62c-51 89 -69 106 -118 106h-38v-168zM271 520v-119h78c30 0 48 3 63 9c20 8 33 29 33 51c0 23 -14 43 -34 51
c-18 8 -23 8 -67 8h-73zM0 382c0 203 165 368 369 368c203 0 368 -165 368 -368c0 -204 -165 -369 -368 -369c-204 0 -369 165 -369 369zM369 689c-170 0 -308 -138 -308 -307c0 -170 138 -308 308 -308c169 0 307 138 307 308c0 169 -138 307 -307 307z" />
    <glyph glyph-name="Thorn" unicode="&#xde;" horiz-adv-x="469" 
d="M175 501v-265h51c72 0 95 30 95 126c0 109 -21 139 -97 139h-49zM75 0v737h100v-164h52c110 0 198 -23 198 -197c0 -150 -45 -209 -159 -209h-91v-167h-100z" />
    <glyph glyph-name="brokenbar" unicode="&#xa6;" horiz-adv-x="546" 
d="M234 -175v350h77v-350h-77zM234 325v350h77v-350h-77z" />
    <glyph glyph-name="Eth" unicode="&#xd0;" horiz-adv-x="469" 
d="M17 335v84h55v318h159c171 0 193 -121 193 -355c0 -262 -22 -301 -56 -341c-19 -23 -63 -41 -111 -41h-185v335h-55zM174 654v-235h71v-84h-71v-250h58c83 0 85 63 85 184v177c0 155 -10 208 -101 208h-42z" />
    <glyph glyph-name="onehalf" unicode="&#xbd;" horiz-adv-x="615" 
d="M60 587v60c34 19 45 29 60 54h64v-349h-69v273c-23 -17 -35 -26 -55 -38zM62 -19l390 738h66l-389 -738h-67zM371 0v62l30 40c76 99 96 134 96 169c0 23 -10 34 -27 34c-22 0 -28 -17 -28 -52h-66c1 77 23 100 93 100c66 0 96 -26 96 -84c0 -53 -22 -94 -97 -181l-32 -36
h134v-52h-199z" />
    <glyph glyph-name="minus" unicode="&#x2212;" horiz-adv-x="667" 
d="M66 287v77h535v-77h-535z" />
    <glyph glyph-name="ccedilla" unicode="&#xe7;" 
d="M282 229h87c0 -85 0 -218 -125 -236l-11 -34c53 -7 84 -34 84 -74c0 -54 -57 -91 -141 -91c-26 0 -51 2 -70 6l5 57c18 -1 31 -2 45 -2c52 0 79 12 79 37c0 32 -49 32 -76 32l20 70c-125 21 -125 146 -125 270c0 179 7 307 162 307c146 0 148 -120 148 -220h-88
c0 63 -1 150 -60 150c-60 0 -64 -71 -64 -174v-113c0 -68 1 -152 64 -152c66 0 66 90 66 167z" />
    <glyph glyph-name="eth" unicode="&#xf0;" 
d="M264 216v151c0 87 -12 133 -53 133c-46 0 -58 -46 -58 -136v-148c0 -96 8 -156 57 -156c48 0 54 60 54 156zM327 721l-66 -42c39 -52 101 -134 101 -384c0 -214 -46 -304 -151 -304c-107 0 -156 85 -156 293c0 193 43 280 143 280c17 0 29 -3 49 -14c-8 34 -20 65 -38 96
l-72 -45l-18 29l72 45c-16 21 -23 30 -43 47l27 29c29 -17 43 -28 62 -46l72 45z" />
    <glyph glyph-name="plusminus" unicode="&#xb1;" horiz-adv-x="667" 
d="M65 394v77h229v229h77v-229h230v-77h-230v-228h-77v228h-229zM65 0v77h536v-77h-536z" />
    <glyph glyph-name="Ccedilla" unicode="&#xc7;" horiz-adv-x="479" 
d="M334 303h99c1 -135 0 -212 -56 -267c-26 -26 -56 -39 -94 -43l-11 -34c53 -7 84 -34 84 -74c0 -54 -57 -91 -141 -91c-26 0 -51 2 -70 6l5 57c18 -1 31 -2 45 -2c52 0 79 12 79 37c0 32 -49 32 -76 32l20 69c-143 19 -148 162 -148 280v128c0 152 7 247 56 298
c30 31 70 50 125 50c53 0 93 -17 118 -42c45 -46 54 -113 53 -235h-96c6 161 -22 197 -76 197c-23 0 -37 -8 -51 -28c-16 -23 -22 -69 -22 -264c0 -231 1 -307 80 -307c77 0 77 75 77 162v71z" />
    <glyph glyph-name="thorn" unicode="&#xfe;" 
d="M273 208v131c0 106 -7 152 -45 152c-14 0 -31 -7 -46 -28c-16 -22 -28 -93 -28 -183c0 -41 3 -101 7 -127c8 -50 39 -91 68 -91c42 0 44 63 44 146zM156 68v-210h-91v879h91v-266c20 59 56 94 99 94c26 0 47 -10 65 -28c36 -35 49 -94 49 -245c0 -73 -2 -192 -29 -241
c-16 -30 -39 -56 -85 -56c-45 0 -71 19 -99 73z" />
    <glyph glyph-name="copyright" unicode="&#xa9;" horiz-adv-x="738" 
d="M539 473l-58 -14c-19 50 -58 75 -114 75c-75 0 -125 -62 -125 -156s47 -150 126 -150c58 0 104 37 119 94l60 -18c-20 -82 -88 -133 -177 -133c-121 0 -194 81 -194 216c0 122 77 201 197 201c85 0 145 -41 166 -115zM0 382c0 203 165 368 368 368
c204 0 369 -165 369 -368s-165 -369 -369 -369c-203 0 -368 166 -368 369zM368 689c-169 0 -307 -138 -307 -307c0 -170 138 -308 307 -308c170 0 308 138 308 308c0 169 -138 307 -308 307z" />
    <glyph glyph-name="logicalnot" unicode="&#xac;" horiz-adv-x="667" 
d="M66 408v77h535v-315h-77v238h-458z" />
    <glyph glyph-name="twosuperior" unicode="&#xb2;" horiz-adv-x="281" 
d="M43 352v62l30 40c76 99 96 134 96 169c0 23 -10 34 -27 34c-22 0 -28 -17 -28 -52h-66c1 77 23 100 93 100c66 0 96 -26 96 -84c0 -53 -22 -94 -97 -181l-32 -36h134v-52h-199z" />
    <glyph glyph-name="threesuperior" unicode="&#xb3;" horiz-adv-x="285" 
d="M111 619h-66c0 31 6 52 20 66c15 15 38 21 71 21c72 0 101 -26 101 -90c0 -50 -12 -71 -51 -83c43 -9 53 -25 53 -83c0 -77 -25 -102 -101 -102c-96 0 -97 44 -97 94h68c0 -36 6 -46 29 -46c24 0 33 14 33 51c0 54 -8 62 -55 63v51c41 1 52 11 52 49c0 34 -8 48 -29 48
c-20 0 -27 -9 -28 -39z" />
    <glyph glyph-name="trademark" unicode="&#x2122;" horiz-adv-x="1000" 
d="M297 339h-66v339h-129v59h326v-59h-131v-339zM533 339h-61v398h98l100 -318l97 318h96v-398h-61v334l-102 -334h-60l-107 339v-339z" />
    <glyph glyph-name="degree" unicode="&#xb0;" horiz-adv-x="400" 
d="M64 615c0 74 61 135 136 135s135 -60 135 -135s-61 -136 -135 -136c-75 0 -136 61 -136 136zM117 615c0 -46 37 -83 83 -83c45 0 82 37 82 83c0 45 -37 82 -82 82c-46 0 -83 -37 -83 -82z" />
    <glyph glyph-name="mu" unicode="&#xb5;" horiz-adv-x="556" 
d="M400 522h87v-522h-79v65c-20 -31 -46 -74 -128 -74c-73 0 -104 38 -125 65v-251h-87v717h87v-252c0 -94 8 -131 36 -163c21 -23 51 -36 83 -36c30 0 61 8 82 27c36 34 44 68 44 170v254z" />
    <glyph glyph-name="Aacute" unicode="&#xc1;" horiz-adv-x="469" 
d="M292 218l-63 393l-57 -393h120zM42 0l129 737h113l143 -737h-100l-22 138h-145l-20 -138h-98zM245 782h-73l65 137h115z" />
    <glyph glyph-name="Acircumflex" unicode="&#xc2;" horiz-adv-x="469" 
d="M292 218l-63 393l-57 -393h120zM42 0l129 737h113l143 -737h-100l-22 138h-145l-20 -138h-98zM279 782l-53 83l-55 -83h-101l106 137h93l110 -137h-100z" />
    <glyph glyph-name="Adieresis" unicode="&#xc4;" horiz-adv-x="469" 
d="M292 218l-63 393l-57 -393h120zM42 0l129 737h113l143 -737h-100l-22 138h-145l-20 -138h-98zM179 782h-92v100h92v-100zM362 782h-92v100h92v-100z" />
    <glyph glyph-name="Agrave" unicode="&#xc0;" horiz-adv-x="469" 
d="M292 218l-63 393l-57 -393h120zM42 0l129 737h113l143 -737h-100l-22 138h-145l-20 -138h-98zM214 919l66 -137h-71l-112 137h117z" />
    <glyph glyph-name="Aring" unicode="&#xc5;" horiz-adv-x="469" 
d="M292 218l-63 393l-57 -393h120zM42 0l129 737h113l143 -737h-100l-22 138h-145l-20 -138h-98zM225 763c-49 0 -88 40 -88 91c0 49 40 88 90 88c47 0 86 -41 86 -90s-39 -89 -88 -89zM225 800c29 0 52 24 52 53s-23 53 -52 53c-28 0 -52 -24 -52 -52c0 -30 23 -54 52 -54z
" />
    <glyph glyph-name="Atilde" unicode="&#xc3;" horiz-adv-x="469" 
d="M292 218l-63 393l-57 -393h120zM42 0l129 737h113l143 -737h-100l-22 138h-145l-20 -138h-98zM136 794h-65c-2 74 47 112 100 112c19 0 45 -8 74 -23l14 -7c15 -8 28 -11 40 -11c22 0 31 11 35 42h64c-2 -70 -37 -111 -94 -111c-23 0 -45 7 -74 23l-18 9
c-17 10 -28 13 -40 13c-20 0 -37 -16 -36 -47z" />
    <glyph glyph-name="Eacute" unicode="&#xc9;" horiz-adv-x="469" 
d="M89 0v737h332v-87h-230v-227h177v-89h-177v-245h247v-89h-349zM265 782h-73l65 137h115z" />
    <glyph glyph-name="Ecircumflex" unicode="&#xca;" horiz-adv-x="469" 
d="M89 0v737h332v-87h-230v-227h177v-89h-177v-245h247v-89h-349zM304 782l-53 83l-55 -83h-101l106 137h93l110 -137h-100z" />
    <glyph glyph-name="Edieresis" unicode="&#xcb;" horiz-adv-x="469" 
d="M89 0v737h332v-87h-230v-227h177v-89h-177v-245h247v-89h-349zM204 782h-92v100h92v-100zM387 782h-92v100h92v-100z" />
    <glyph glyph-name="Egrave" unicode="&#xc8;" horiz-adv-x="469" 
d="M89 0v737h332v-87h-230v-227h177v-89h-177v-245h247v-89h-349zM224 919l66 -137h-71l-112 137h117z" />
    <glyph glyph-name="Iacute" unicode="&#xcd;" horiz-adv-x="281" 
d="M90 0v737h102v-737h-102zM151 782h-73l65 137h115z" />
    <glyph glyph-name="Icircumflex" unicode="&#xce;" horiz-adv-x="281" 
d="M90 0v737h102v-737h-102zM195 782l-53 83l-55 -83h-101l106 137h93l110 -137h-100z" />
    <glyph glyph-name="Idieresis" unicode="&#xcf;" horiz-adv-x="281" 
d="M90 0v737h102v-737h-102zM95 782h-92v100h92v-100zM278 782h-92v100h92v-100z" />
    <glyph glyph-name="Igrave" unicode="&#xcc;" horiz-adv-x="281" 
d="M90 0v737h102v-737h-102zM125 919l66 -137h-71l-112 137h117z" />
    <glyph glyph-name="Ntilde" unicode="&#xd1;" horiz-adv-x="469" 
d="M63 0v737h112l143 -479v479h89v-737h-89l-166 554v-554h-89zM136 794h-65c-2 74 47 112 100 112c19 0 45 -8 74 -23l14 -7c15 -8 28 -11 40 -11c22 0 31 11 35 42h64c-2 -70 -37 -111 -94 -111c-23 0 -45 7 -74 23l-18 9c-17 10 -28 13 -40 13c-20 0 -37 -16 -36 -47z
" />
    <glyph glyph-name="Oacute" unicode="&#xd3;" horiz-adv-x="469" 
d="M58 387c0 196 9 365 179 365c47 0 82 -14 109 -41c61 -60 66 -149 66 -347c0 -184 -7 -271 -67 -331c-27 -28 -68 -42 -109 -42c-47 0 -84 14 -115 45c-60 61 -63 180 -63 351zM304 339v91c0 153 0 243 -68 243c-70 0 -70 -89 -70 -251v-97c0 -172 0 -254 72 -254
c64 0 66 82 66 268zM245 782h-73l65 137h115z" />
    <glyph glyph-name="Ocircumflex" unicode="&#xd4;" horiz-adv-x="469" 
d="M58 387c0 196 9 365 179 365c47 0 82 -14 109 -41c61 -60 66 -149 66 -347c0 -184 -7 -271 -67 -331c-27 -28 -68 -42 -109 -42c-47 0 -84 14 -115 45c-60 61 -63 180 -63 351zM304 339v91c0 153 0 243 -68 243c-70 0 -70 -89 -70 -251v-97c0 -172 0 -254 72 -254
c64 0 66 82 66 268zM284 782l-53 83l-55 -83h-101l106 137h93l110 -137h-100z" />
    <glyph glyph-name="Odieresis" unicode="&#xd6;" horiz-adv-x="469" 
d="M58 387c0 196 9 365 179 365c47 0 82 -14 109 -41c61 -60 66 -149 66 -347c0 -184 -7 -271 -67 -331c-27 -28 -68 -42 -109 -42c-47 0 -84 14 -115 45c-60 61 -63 180 -63 351zM304 339v91c0 153 0 243 -68 243c-70 0 -70 -89 -70 -251v-97c0 -172 0 -254 72 -254
c64 0 66 82 66 268zM184 782h-92v100h92v-100zM367 782h-92v100h92v-100z" />
    <glyph glyph-name="Ograve" unicode="&#xd2;" horiz-adv-x="469" 
d="M58 387c0 196 9 365 179 365c47 0 82 -14 109 -41c61 -60 66 -149 66 -347c0 -184 -7 -271 -67 -331c-27 -28 -68 -42 -109 -42c-47 0 -84 14 -115 45c-60 61 -63 180 -63 351zM304 339v91c0 153 0 243 -68 243c-70 0 -70 -89 -70 -251v-97c0 -172 0 -254 72 -254
c64 0 66 82 66 268zM219 919l66 -137h-71l-112 137h117z" />
    <glyph glyph-name="Otilde" unicode="&#xd5;" horiz-adv-x="469" 
d="M58 387c0 196 9 365 179 365c47 0 82 -14 109 -41c61 -60 66 -149 66 -347c0 -184 -7 -271 -67 -331c-27 -28 -68 -42 -109 -42c-47 0 -84 14 -115 45c-60 61 -63 180 -63 351zM304 339v91c0 153 0 243 -68 243c-70 0 -70 -89 -70 -251v-97c0 -172 0 -254 72 -254
c64 0 66 82 66 268zM136 794h-65c-2 74 47 112 100 112c19 0 45 -8 74 -23l14 -7c15 -8 28 -11 40 -11c22 0 31 11 35 42h64c-2 -70 -37 -111 -94 -111c-23 0 -45 7 -74 23l-18 9c-17 10 -28 13 -40 13c-20 0 -37 -16 -36 -47z" />
    <glyph glyph-name="Scaron" unicode="&#x160;" 
d="M37 241h95v-68c0 -67 28 -105 79 -105c45 0 70 33 70 93c0 53 -25 97 -97 170l-30 30c-60 61 -116 128 -116 236c0 90 66 151 168 151s159 -58 159 -163c0 -14 -1 -23 -3 -47h-92v35c0 65 -22 96 -68 96c-39 0 -64 -29 -64 -71c0 -70 45 -117 112 -183
c70 -72 130 -135 130 -241c0 -110 -68 -183 -172 -183c-113 0 -171 66 -171 196v54zM152 919l55 -83l54 83h100l-110 -137h-94l-105 137h100z" />
    <glyph glyph-name="Uacute" unicode="&#xda;" horiz-adv-x="469" 
d="M65 737h102v-553c0 -66 17 -109 70 -109c50 0 63 44 65 109v553h102v-560c0 -127 -58 -186 -169 -186c-112 0 -170 60 -170 186v560zM245 782h-73l65 137h115z" />
    <glyph glyph-name="Ucircumflex" unicode="&#xdb;" horiz-adv-x="469" 
d="M65 737h102v-553c0 -66 17 -109 70 -109c50 0 63 44 65 109v553h102v-560c0 -127 -58 -186 -169 -186c-112 0 -170 60 -170 186v560zM289 782l-53 83l-55 -83h-101l106 137h93l110 -137h-100z" />
    <glyph glyph-name="Udieresis" unicode="&#xdc;" horiz-adv-x="469" 
d="M65 737h102v-553c0 -66 17 -109 70 -109c50 0 63 44 65 109v553h102v-560c0 -127 -58 -186 -169 -186c-112 0 -170 60 -170 186v560zM189 782h-92v100h92v-100zM372 782h-92v100h92v-100z" />
    <glyph glyph-name="Ugrave" unicode="&#xd9;" horiz-adv-x="469" 
d="M65 737h102v-553c0 -66 17 -109 70 -109c50 0 63 44 65 109v553h102v-560c0 -127 -58 -186 -169 -186c-112 0 -170 60 -170 186v560zM219 919l66 -137h-71l-112 137h117z" />
    <glyph glyph-name="Yacute" unicode="&#xdd;" horiz-adv-x="469" 
d="M183 293l-147 444h100l98 -317l99 317h101l-150 -438v-299h-101v293zM245 782h-73l65 137h115z" />
    <glyph glyph-name="Ydieresis" unicode="&#x178;" horiz-adv-x="469" 
d="M183 293l-147 444h100l98 -317l99 317h101l-150 -438v-299h-101v293zM189 782h-92v100h92v-100zM372 782h-92v100h92v-100z" />
    <glyph glyph-name="Zcaron" unicode="&#x17d;" 
d="M63 651v86h320v-123l-270 -526h270v-88h-347v150l259 501h-232zM162 919l55 -83l54 83h100l-110 -137h-94l-105 137h100z" />
    <glyph glyph-name="aacute" unicode="&#xe1;" 
d="M258 183v81c-91 -16 -121 -31 -121 -116c0 -60 16 -89 49 -89c40 0 72 55 72 124zM144 384l-87 11c2 116 54 175 148 175c98 0 143 -49 143 -151v-265c0 -38 6 -78 16 -112c5 -18 8 -25 19 -42h-91c-14 23 -19 49 -26 81c-35 -61 -68 -87 -113 -87
c-73 0 -109 53 -109 159c0 57 14 98 42 126c22 22 44 30 101 38c35 4 44 6 72 14v97c0 44 -21 70 -55 70c-43 0 -59 -29 -60 -114zM229 605h-73l65 137h115z" />
    <glyph glyph-name="acircumflex" unicode="&#xe2;" 
d="M258 183v81c-91 -16 -121 -31 -121 -116c0 -60 16 -89 49 -89c40 0 72 55 72 124zM144 384l-87 11c2 116 54 175 148 175c98 0 143 -49 143 -151v-265c0 -38 6 -78 16 -112c5 -18 8 -25 19 -42h-91c-14 23 -19 49 -26 81c-35 -61 -68 -87 -113 -87
c-73 0 -109 53 -109 159c0 57 14 98 42 126c22 22 44 30 101 38c35 4 44 6 72 14v97c0 44 -21 70 -55 70c-43 0 -59 -29 -60 -114zM263 605l-53 83l-55 -83h-101l106 137h93l110 -137h-100z" />
    <glyph glyph-name="adieresis" unicode="&#xe4;" 
d="M258 183v81c-91 -16 -121 -31 -121 -116c0 -60 16 -89 49 -89c40 0 72 55 72 124zM144 384l-87 11c2 116 54 175 148 175c98 0 143 -49 143 -151v-265c0 -38 6 -78 16 -112c5 -18 8 -25 19 -42h-91c-14 23 -19 49 -26 81c-35 -61 -68 -87 -113 -87
c-73 0 -109 53 -109 159c0 57 14 98 42 126c22 22 44 30 101 38c35 4 44 6 72 14v97c0 44 -21 70 -55 70c-43 0 -59 -29 -60 -114zM158 605h-92v100h92v-100zM341 605h-92v100h92v-100z" />
    <glyph glyph-name="agrave" unicode="&#xe0;" 
d="M258 183v81c-91 -16 -121 -31 -121 -116c0 -60 16 -89 49 -89c40 0 72 55 72 124zM144 384l-87 11c2 116 54 175 148 175c98 0 143 -49 143 -151v-265c0 -38 6 -78 16 -112c5 -18 8 -25 19 -42h-91c-14 23 -19 49 -26 81c-35 -61 -68 -87 -113 -87
c-73 0 -109 53 -109 159c0 57 14 98 42 126c22 22 44 30 101 38c35 4 44 6 72 14v97c0 44 -21 70 -55 70c-43 0 -59 -29 -60 -114zM198 742l66 -137h-71l-112 137h117z" />
    <glyph glyph-name="aring" unicode="&#xe5;" 
d="M258 183v81c-91 -16 -121 -31 -121 -116c0 -60 16 -89 49 -89c40 0 72 55 72 124zM144 384l-87 11c2 116 54 175 148 175c98 0 143 -49 143 -151v-265c0 -38 6 -78 16 -112c5 -18 8 -25 19 -42h-91c-14 23 -19 49 -26 81c-35 -61 -68 -87 -113 -87
c-73 0 -109 53 -109 159c0 57 14 98 42 126c22 22 44 30 101 38c35 4 44 6 72 14v97c0 44 -21 70 -55 70c-43 0 -59 -29 -60 -114zM209 596c-49 0 -88 40 -88 91c0 49 40 88 90 88c47 0 86 -41 86 -90s-39 -89 -88 -89zM209 633c29 0 52 24 52 53s-23 53 -52 53
c-28 0 -52 -24 -52 -52c0 -30 23 -54 52 -54z" />
    <glyph glyph-name="atilde" unicode="&#xe3;" 
d="M258 183v81c-91 -16 -121 -31 -121 -116c0 -60 16 -89 49 -89c40 0 72 55 72 124zM144 384l-87 11c2 116 54 175 148 175c98 0 143 -49 143 -151v-265c0 -38 6 -78 16 -112c5 -18 8 -25 19 -42h-91c-14 23 -19 49 -26 81c-35 -61 -68 -87 -113 -87
c-73 0 -109 53 -109 159c0 57 14 98 42 126c22 22 44 30 101 38c35 4 44 6 72 14v97c0 44 -21 70 -55 70c-43 0 -59 -29 -60 -114zM110 617h-65c-2 74 47 112 100 112c19 0 45 -8 74 -23l14 -7c15 -8 28 -11 40 -11c22 0 31 11 35 42h64c-2 -70 -37 -111 -94 -111
c-23 0 -45 7 -74 23l-18 9c-17 10 -28 13 -40 13c-20 0 -37 -16 -36 -47z" />
    <glyph glyph-name="eacute" unicode="&#xe9;" 
d="M150 346h120v22c0 62 -2 142 -60 142c-55 0 -60 -78 -60 -145v-19zM294 191h82c-2 -53 -6 -75 -19 -106c-29 -69 -84 -94 -139 -94c-39 0 -74 15 -101 41c-44 45 -61 111 -61 248c0 162 20 231 77 269c22 15 47 22 75 22c41 0 75 -13 101 -39c39 -39 52 -88 53 -209v-43
h-213v-32c0 -90 4 -179 75 -179c46 0 70 41 70 122zM224 605h-73l65 137h115z" />
    <glyph glyph-name="ecircumflex" unicode="&#xea;" 
d="M150 346h120v22c0 62 -2 142 -60 142c-55 0 -60 -78 -60 -145v-19zM294 191h82c-2 -53 -6 -75 -19 -106c-29 -69 -84 -94 -139 -94c-39 0 -74 15 -101 41c-44 45 -61 111 -61 248c0 162 20 231 77 269c22 15 47 22 75 22c41 0 75 -13 101 -39c39 -39 52 -88 53 -209v-43
h-213v-32c0 -90 4 -179 75 -179c46 0 70 41 70 122zM268 605l-53 83l-55 -83h-101l106 137h93l110 -137h-100z" />
    <glyph glyph-name="edieresis" unicode="&#xeb;" 
d="M150 346h120v22c0 62 -2 142 -60 142c-55 0 -60 -78 -60 -145v-19zM294 191h82c-2 -53 -6 -75 -19 -106c-29 -69 -84 -94 -139 -94c-39 0 -74 15 -101 41c-44 45 -61 111 -61 248c0 162 20 231 77 269c22 15 47 22 75 22c41 0 75 -13 101 -39c39 -39 52 -88 53 -209v-43
h-213v-32c0 -90 4 -179 75 -179c46 0 70 41 70 122zM163 605h-92v100h92v-100zM346 605h-92v100h92v-100z" />
    <glyph glyph-name="egrave" unicode="&#xe8;" 
d="M150 346h120v22c0 62 -2 142 -60 142c-55 0 -60 -78 -60 -145v-19zM294 191h82c-2 -53 -6 -75 -19 -106c-29 -69 -84 -94 -139 -94c-39 0 -74 15 -101 41c-44 45 -61 111 -61 248c0 162 20 231 77 269c22 15 47 22 75 22c41 0 75 -13 101 -39c39 -39 52 -88 53 -209v-43
h-213v-32c0 -90 4 -179 75 -179c46 0 70 41 70 122zM198 742l66 -137h-71l-112 137h117z" />
    <glyph glyph-name="iacute" unicode="&#xed;" horiz-adv-x="229" 
d="M69 0v560h91v-560h-91zM125 605h-73l65 137h115z" />
    <glyph glyph-name="icircumflex" unicode="&#xee;" horiz-adv-x="229" 
d="M69 0v560h91v-560h-91zM169 605l-53 83l-55 -83h-101l106 137h93l110 -137h-100z" />
    <glyph glyph-name="idieresis" unicode="&#xef;" horiz-adv-x="229" 
d="M69 0v560h91v-560h-91zM69 605h-92v100h92v-100zM252 605h-92v100h92v-100z" />
    <glyph glyph-name="igrave" unicode="&#xec;" horiz-adv-x="229" 
d="M69 0v560h91v-560h-91zM104 742l66 -137h-71l-112 137h117z" />
    <glyph glyph-name="ntilde" unicode="&#xf1;" 
d="M145 560v-122c23 58 49 127 118 127c64 0 96 -60 96 -183v-382h-90v395c0 63 -14 95 -41 95c-42 0 -74 -77 -74 -179v-311h-91v560h82zM105 617h-65c-2 74 47 112 100 112c19 0 45 -8 74 -23l14 -7c15 -8 28 -11 40 -11c22 0 31 11 35 42h64c-2 -70 -37 -111 -94 -111
c-23 0 -45 7 -74 23l-18 9c-17 10 -28 13 -40 13c-20 0 -37 -16 -36 -47z" />
    <glyph glyph-name="oacute" unicode="&#xf3;" 
d="M54 273c0 122 6 206 60 259c26 26 56 38 94 38c43 0 71 -15 98 -41c50 -49 57 -136 57 -240c0 -80 -4 -202 -60 -258c-15 -15 -44 -40 -95 -40c-47 0 -76 20 -99 42c-54 55 -55 160 -55 240zM264 289c0 114 -2 211 -54 211c-56 0 -57 -97 -57 -207c0 -142 1 -231 55 -231
s56 91 56 227zM219 605h-73l65 137h115z" />
    <glyph glyph-name="ocircumflex" unicode="&#xf4;" 
d="M54 273c0 122 6 206 60 259c26 26 56 38 94 38c43 0 71 -15 98 -41c50 -49 57 -136 57 -240c0 -80 -4 -202 -60 -258c-15 -15 -44 -40 -95 -40c-47 0 -76 20 -99 42c-54 55 -55 160 -55 240zM264 289c0 114 -2 211 -54 211c-56 0 -57 -97 -57 -207c0 -142 1 -231 55 -231
s56 91 56 227zM263 605l-53 83l-55 -83h-101l106 137h93l110 -137h-100z" />
    <glyph glyph-name="odieresis" unicode="&#xf6;" 
d="M54 273c0 122 6 206 60 259c26 26 56 38 94 38c43 0 71 -15 98 -41c50 -49 57 -136 57 -240c0 -80 -4 -202 -60 -258c-15 -15 -44 -40 -95 -40c-47 0 -76 20 -99 42c-54 55 -55 160 -55 240zM264 289c0 114 -2 211 -54 211c-56 0 -57 -97 -57 -207c0 -142 1 -231 55 -231
s56 91 56 227zM163 605h-92v100h92v-100zM346 605h-92v100h92v-100z" />
    <glyph glyph-name="ograve" unicode="&#xf2;" 
d="M54 273c0 122 6 206 60 259c26 26 56 38 94 38c43 0 71 -15 98 -41c50 -49 57 -136 57 -240c0 -80 -4 -202 -60 -258c-15 -15 -44 -40 -95 -40c-47 0 -76 20 -99 42c-54 55 -55 160 -55 240zM264 289c0 114 -2 211 -54 211c-56 0 -57 -97 -57 -207c0 -142 1 -231 55 -231
s56 91 56 227zM198 742l66 -137h-71l-112 137h117z" />
    <glyph glyph-name="otilde" unicode="&#xf5;" 
d="M54 273c0 122 6 206 60 259c26 26 56 38 94 38c43 0 71 -15 98 -41c50 -49 57 -136 57 -240c0 -80 -4 -202 -60 -258c-15 -15 -44 -40 -95 -40c-47 0 -76 20 -99 42c-54 55 -55 160 -55 240zM264 289c0 114 -2 211 -54 211c-56 0 -57 -97 -57 -207c0 -142 1 -231 55 -231
s56 91 56 227zM110 617h-65c-2 74 47 112 100 112c19 0 45 -8 74 -23l14 -7c15 -8 28 -11 40 -11c22 0 31 11 35 42h64c-2 -70 -37 -111 -94 -111c-23 0 -45 7 -74 23l-18 9c-17 10 -28 13 -40 13c-20 0 -37 -16 -36 -47z" />
    <glyph glyph-name="scaron" unicode="&#x161;" horiz-adv-x="375" 
d="M46 180l83 -1c-2 -47 -2 -122 62 -122c36 0 58 26 58 68c0 44 -26 71 -89 125c-44 37 -109 93 -109 173c0 87 54 148 132 148c57 0 98 -26 118 -75c10 -24 13 -48 13 -105h-77c1 58 -1 77 -17 95c-11 13 -24 17 -39 17c-29 0 -48 -25 -48 -62c0 -47 25 -71 76 -115
c15 -13 38 -33 68 -61c41 -43 58 -79 58 -122c0 -91 -60 -152 -148 -152c-60 0 -105 29 -127 83c-11 26 -14 50 -14 106zM136 742l55 -83l54 83h100l-110 -137h-94l-105 137h100z" />
    <glyph glyph-name="uacute" unicode="&#xfa;" 
d="M59 142v418h90v-413c0 -53 12 -76 41 -76c40 0 72 63 72 138v351h91v-560h-77c-1 31 -1 74 -8 98c-36 -75 -67 -103 -113 -103c-61 0 -96 54 -96 147zM219 605h-73l65 137h115z" />
    <glyph glyph-name="ucircumflex" unicode="&#xfb;" 
d="M59 142v418h90v-413c0 -53 12 -76 41 -76c40 0 72 63 72 138v351h91v-560h-77c-1 31 -1 74 -8 98c-36 -75 -67 -103 -113 -103c-61 0 -96 54 -96 147zM263 605l-53 83l-55 -83h-101l106 137h93l110 -137h-100z" />
    <glyph glyph-name="udieresis" unicode="&#xfc;" 
d="M59 142v418h90v-413c0 -53 12 -76 41 -76c40 0 72 63 72 138v351h91v-560h-77c-1 31 -1 74 -8 98c-36 -75 -67 -103 -113 -103c-61 0 -96 54 -96 147zM163 605h-92v100h92v-100zM346 605h-92v100h92v-100z" />
    <glyph glyph-name="ugrave" unicode="&#xf9;" 
d="M59 142v418h90v-413c0 -53 12 -76 41 -76c40 0 72 63 72 138v351h91v-560h-77c-1 31 -1 74 -8 98c-36 -75 -67 -103 -113 -103c-61 0 -96 54 -96 147zM198 742l66 -137h-71l-112 137h117z" />
    <glyph glyph-name="yacute" unicode="&#xfd;" 
d="M183 86l-146 474h92l89 -318l73 318h88l-121 -515c-16 -65 -28 -117 -62 -150c-23 -24 -56 -37 -92 -37c-17 0 -27 2 -49 8v74c17 -4 24 -5 34 -5c20 0 35 6 48 20c20 21 26 43 42 115zM219 605h-73l65 137h115z" />
    <glyph glyph-name="ydieresis" unicode="&#xff;" 
d="M183 86l-146 474h92l89 -318l73 318h88l-121 -515c-16 -65 -28 -117 -62 -150c-23 -24 -56 -37 -92 -37c-17 0 -27 2 -49 8v74c17 -4 24 -5 34 -5c20 0 35 6 48 20c20 21 26 43 42 115zM163 605h-92v100h92v-100zM346 605h-92v100h92v-100z" />
    <glyph glyph-name="zcaron" unicode="&#x17e;" 
d="M74 477v83h284v-120l-216 -357h223v-83h-303v115l219 362h-207zM157 742l55 -83l54 83h100l-110 -137h-94l-105 137h100z" />
    </font>
</defs>
</svg>
